solid OpenSCAD_Model
  facet normal -1 0 0
    outer loop
      vertex 10 0 26
      vertex 10 2 30.6
      vertex 10 2 26
    endloop
  endfacet
  facet normal -1 -0 0
    outer loop
      vertex 10 2 30.6
      vertex 10 0 26
      vertex 10 0 30.6
    endloop
  endfacet
  facet normal 0 0 -1
    outer loop
      vertex 8 0 30.6
      vertex 10 2 30.6
      vertex 10 0 30.6
    endloop
  endfacet
  facet normal -0 0 -1
    outer loop
      vertex 10 2 30.6
      vertex 8 0 30.6
      vertex 8 2 30.6
    endloop
  endfacet
  facet normal -0 0 1
    outer loop
      vertex 8 2 26
      vertex 10 0 26
      vertex 10 2 26
    endloop
  endfacet
  facet normal 0 0 1
    outer loop
      vertex 10 0 26
      vertex 8 2 26
      vertex 8 0 26
    endloop
  endfacet
  facet normal 1 -0 0
    outer loop
      vertex 8 0 30.6
      vertex 8 2 26
      vertex 8 2 30.6
    endloop
  endfacet
  facet normal 1 0 0
    outer loop
      vertex 8 2 26
      vertex 8 0 30.6
      vertex 8 0 26
    endloop
  endfacet
  facet normal -1 0 0
    outer loop
      vertex 16 0 26
      vertex 16 2 30.6
      vertex 16 2 26
    endloop
  endfacet
  facet normal -1 -0 0
    outer loop
      vertex 16 2 30.6
      vertex 16 0 26
      vertex 16 0 30.6
    endloop
  endfacet
  facet normal 0 0 -1
    outer loop
      vertex 14 0 30.6
      vertex 16 2 30.6
      vertex 16 0 30.6
    endloop
  endfacet
  facet normal -0 0 -1
    outer loop
      vertex 16 2 30.6
      vertex 14 0 30.6
      vertex 14 2 30.6
    endloop
  endfacet
  facet normal -0 0 1
    outer loop
      vertex 14 2 26
      vertex 16 0 26
      vertex 16 2 26
    endloop
  endfacet
  facet normal 0 0 1
    outer loop
      vertex 16 0 26
      vertex 14 2 26
      vertex 14 0 26
    endloop
  endfacet
  facet normal 1 -0 0
    outer loop
      vertex 14 0 30.6
      vertex 14 2 26
      vertex 14 2 30.6
    endloop
  endfacet
  facet normal 1 0 0
    outer loop
      vertex 14 2 26
      vertex 14 0 30.6
      vertex 14 0 26
    endloop
  endfacet
  facet normal -1 0 0
    outer loop
      vertex 22 0 26
      vertex 22 2 30.6
      vertex 22 2 26
    endloop
  endfacet
  facet normal -1 -0 0
    outer loop
      vertex 22 2 30.6
      vertex 22 0 26
      vertex 22 0 30.6
    endloop
  endfacet
  facet normal 0 0 -1
    outer loop
      vertex 20 0 30.6
      vertex 22 2 30.6
      vertex 22 0 30.6
    endloop
  endfacet
  facet normal -0 0 -1
    outer loop
      vertex 22 2 30.6
      vertex 20 0 30.6
      vertex 20 2 30.6
    endloop
  endfacet
  facet normal -0 0 1
    outer loop
      vertex 20 2 26
      vertex 22 0 26
      vertex 22 2 26
    endloop
  endfacet
  facet normal 0 0 1
    outer loop
      vertex 22 0 26
      vertex 20 2 26
      vertex 20 0 26
    endloop
  endfacet
  facet normal 1 -0 0
    outer loop
      vertex 20 0 30.6
      vertex 20 2 26
      vertex 20 2 30.6
    endloop
  endfacet
  facet normal 1 0 0
    outer loop
      vertex 20 2 26
      vertex 20 0 30.6
      vertex 20 0 26
    endloop
  endfacet
  facet normal -1 0 0
    outer loop
      vertex 28 0 26
      vertex 28 2 30.6
      vertex 28 2 26
    endloop
  endfacet
  facet normal -1 -0 0
    outer loop
      vertex 28 2 30.6
      vertex 28 0 26
      vertex 28 0 30.6
    endloop
  endfacet
  facet normal 0 0 -1
    outer loop
      vertex 26 0 30.6
      vertex 28 2 30.6
      vertex 28 0 30.6
    endloop
  endfacet
  facet normal -0 0 -1
    outer loop
      vertex 28 2 30.6
      vertex 26 0 30.6
      vertex 26 2 30.6
    endloop
  endfacet
  facet normal -0 0 1
    outer loop
      vertex 26 2 26
      vertex 28 0 26
      vertex 28 2 26
    endloop
  endfacet
  facet normal 0 0 1
    outer loop
      vertex 28 0 26
      vertex 26 2 26
      vertex 26 0 26
    endloop
  endfacet
  facet normal 1 -0 0
    outer loop
      vertex 26 0 30.6
      vertex 26 2 26
      vertex 26 2 30.6
    endloop
  endfacet
  facet normal 1 0 0
    outer loop
      vertex 26 2 26
      vertex 26 0 30.6
      vertex 26 0 26
    endloop
  endfacet
  facet normal -1 0 0
    outer loop
      vertex 10 30.7 26
      vertex 10 32.7 30.6
      vertex 10 32.7 26
    endloop
  endfacet
  facet normal -1 -0 0
    outer loop
      vertex 10 32.7 30.6
      vertex 10 30.7 26
      vertex 10 30.7 30.6
    endloop
  endfacet
  facet normal 0 0 -1
    outer loop
      vertex 8 30.7 30.6
      vertex 10 32.7 30.6
      vertex 10 30.7 30.6
    endloop
  endfacet
  facet normal -0 0 -1
    outer loop
      vertex 10 32.7 30.6
      vertex 8 30.7 30.6
      vertex 8 32.7 30.6
    endloop
  endfacet
  facet normal -0 0 1
    outer loop
      vertex 8 32.7 26
      vertex 10 30.7 26
      vertex 10 32.7 26
    endloop
  endfacet
  facet normal 0 0 1
    outer loop
      vertex 10 30.7 26
      vertex 8 32.7 26
      vertex 8 30.7 26
    endloop
  endfacet
  facet normal 1 -0 0
    outer loop
      vertex 8 30.7 30.6
      vertex 8 32.7 26
      vertex 8 32.7 30.6
    endloop
  endfacet
  facet normal 1 0 0
    outer loop
      vertex 8 32.7 26
      vertex 8 30.7 30.6
      vertex 8 30.7 26
    endloop
  endfacet
  facet normal -1 0 0
    outer loop
      vertex 16 30.7 26
      vertex 16 32.7 30.6
      vertex 16 32.7 26
    endloop
  endfacet
  facet normal -1 -0 0
    outer loop
      vertex 16 32.7 30.6
      vertex 16 30.7 26
      vertex 16 30.7 30.6
    endloop
  endfacet
  facet normal 0 0 -1
    outer loop
      vertex 14 30.7 30.6
      vertex 16 32.7 30.6
      vertex 16 30.7 30.6
    endloop
  endfacet
  facet normal -0 0 -1
    outer loop
      vertex 16 32.7 30.6
      vertex 14 30.7 30.6
      vertex 14 32.7 30.6
    endloop
  endfacet
  facet normal -0 0 1
    outer loop
      vertex 14 32.7 26
      vertex 16 30.7 26
      vertex 16 32.7 26
    endloop
  endfacet
  facet normal 0 0 1
    outer loop
      vertex 16 30.7 26
      vertex 14 32.7 26
      vertex 14 30.7 26
    endloop
  endfacet
  facet normal 1 -0 0
    outer loop
      vertex 14 30.7 30.6
      vertex 14 32.7 26
      vertex 14 32.7 30.6
    endloop
  endfacet
  facet normal 1 0 0
    outer loop
      vertex 14 32.7 26
      vertex 14 30.7 30.6
      vertex 14 30.7 26
    endloop
  endfacet
  facet normal -1 0 0
    outer loop
      vertex 22 30.7 26
      vertex 22 32.7 30.6
      vertex 22 32.7 26
    endloop
  endfacet
  facet normal -1 -0 0
    outer loop
      vertex 22 32.7 30.6
      vertex 22 30.7 26
      vertex 22 30.7 30.6
    endloop
  endfacet
  facet normal 0 0 -1
    outer loop
      vertex 20 30.7 30.6
      vertex 22 32.7 30.6
      vertex 22 30.7 30.6
    endloop
  endfacet
  facet normal -0 0 -1
    outer loop
      vertex 22 32.7 30.6
      vertex 20 30.7 30.6
      vertex 20 32.7 30.6
    endloop
  endfacet
  facet normal -0 0 1
    outer loop
      vertex 20 32.7 26
      vertex 22 30.7 26
      vertex 22 32.7 26
    endloop
  endfacet
  facet normal 0 0 1
    outer loop
      vertex 22 30.7 26
      vertex 20 32.7 26
      vertex 20 30.7 26
    endloop
  endfacet
  facet normal 1 -0 0
    outer loop
      vertex 20 30.7 30.6
      vertex 20 32.7 26
      vertex 20 32.7 30.6
    endloop
  endfacet
  facet normal 1 0 0
    outer loop
      vertex 20 32.7 26
      vertex 20 30.7 30.6
      vertex 20 30.7 26
    endloop
  endfacet
  facet normal -1 0 0
    outer loop
      vertex 28 30.7 26
      vertex 28 32.7 30.6
      vertex 28 32.7 26
    endloop
  endfacet
  facet normal -1 -0 0
    outer loop
      vertex 28 32.7 30.6
      vertex 28 30.7 26
      vertex 28 30.7 30.6
    endloop
  endfacet
  facet normal 0 0 -1
    outer loop
      vertex 26 30.7 30.6
      vertex 28 32.7 30.6
      vertex 28 30.7 30.6
    endloop
  endfacet
  facet normal -0 0 -1
    outer loop
      vertex 28 32.7 30.6
      vertex 26 30.7 30.6
      vertex 26 32.7 30.6
    endloop
  endfacet
  facet normal -0 0 1
    outer loop
      vertex 26 32.7 26
      vertex 28 30.7 26
      vertex 28 32.7 26
    endloop
  endfacet
  facet normal 0 0 1
    outer loop
      vertex 28 30.7 26
      vertex 26 32.7 26
      vertex 26 30.7 26
    endloop
  endfacet
  facet normal 1 -0 0
    outer loop
      vertex 26 30.7 30.6
      vertex 26 32.7 26
      vertex 26 32.7 30.6
    endloop
  endfacet
  facet normal 1 0 0
    outer loop
      vertex 26 32.7 26
      vertex 26 30.7 30.6
      vertex 26 30.7 26
    endloop
  endfacet
  facet normal -1 0 0
    outer loop
      vertex 34 30.7 26
      vertex 34 32.7 30.6
      vertex 34 32.7 26
    endloop
  endfacet
  facet normal -1 -0 0
    outer loop
      vertex 34 32.7 30.6
      vertex 34 30.7 26
      vertex 34 30.7 30.6
    endloop
  endfacet
  facet normal 0 0 -1
    outer loop
      vertex 32 30.7 30.6
      vertex 34 32.7 30.6
      vertex 34 30.7 30.6
    endloop
  endfacet
  facet normal -0 0 -1
    outer loop
      vertex 34 32.7 30.6
      vertex 32 30.7 30.6
      vertex 32 32.7 30.6
    endloop
  endfacet
  facet normal -0 0 1
    outer loop
      vertex 32 32.7 26
      vertex 34 30.7 26
      vertex 34 32.7 26
    endloop
  endfacet
  facet normal 0 0 1
    outer loop
      vertex 34 30.7 26
      vertex 32 32.7 26
      vertex 32 30.7 26
    endloop
  endfacet
  facet normal 1 -0 0
    outer loop
      vertex 32 30.7 30.6
      vertex 32 32.7 26
      vertex 32 32.7 30.6
    endloop
  endfacet
  facet normal 1 0 0
    outer loop
      vertex 32 32.7 26
      vertex 32 30.7 30.6
      vertex 32 30.7 26
    endloop
  endfacet
  facet normal -1 0 0
    outer loop
      vertex 40 30.7 26
      vertex 40 32.7 30.6
      vertex 40 32.7 26
    endloop
  endfacet
  facet normal -1 -0 0
    outer loop
      vertex 40 32.7 30.6
      vertex 40 30.7 26
      vertex 40 30.7 30.6
    endloop
  endfacet
  facet normal 0 0 -1
    outer loop
      vertex 38 30.7 30.6
      vertex 40 32.7 30.6
      vertex 40 30.7 30.6
    endloop
  endfacet
  facet normal -0 0 -1
    outer loop
      vertex 40 32.7 30.6
      vertex 38 30.7 30.6
      vertex 38 32.7 30.6
    endloop
  endfacet
  facet normal -0 0 1
    outer loop
      vertex 38 32.7 26
      vertex 40 30.7 26
      vertex 40 32.7 26
    endloop
  endfacet
  facet normal 0 0 1
    outer loop
      vertex 40 30.7 26
      vertex 38 32.7 26
      vertex 38 30.7 26
    endloop
  endfacet
  facet normal 1 -0 0
    outer loop
      vertex 38 30.7 30.6
      vertex 38 32.7 26
      vertex 38 32.7 30.6
    endloop
  endfacet
  facet normal 1 0 0
    outer loop
      vertex 38 32.7 26
      vertex 38 30.7 30.6
      vertex 38 30.7 26
    endloop
  endfacet
  facet normal -1 0 0
    outer loop
      vertex 46 30.7 26
      vertex 46 32.7 30.6
      vertex 46 32.7 26
    endloop
  endfacet
  facet normal -1 -0 0
    outer loop
      vertex 46 32.7 30.6
      vertex 46 30.7 26
      vertex 46 30.7 30.6
    endloop
  endfacet
  facet normal 0 0 -1
    outer loop
      vertex 44 30.7 30.6
      vertex 46 32.7 30.6
      vertex 46 30.7 30.6
    endloop
  endfacet
  facet normal -0 0 -1
    outer loop
      vertex 46 32.7 30.6
      vertex 44 30.7 30.6
      vertex 44 32.7 30.6
    endloop
  endfacet
  facet normal -0 0 1
    outer loop
      vertex 44 32.7 26
      vertex 46 30.7 26
      vertex 46 32.7 26
    endloop
  endfacet
  facet normal 0 0 1
    outer loop
      vertex 46 30.7 26
      vertex 44 32.7 26
      vertex 44 30.7 26
    endloop
  endfacet
  facet normal 1 -0 0
    outer loop
      vertex 44 30.7 30.6
      vertex 44 32.7 26
      vertex 44 32.7 30.6
    endloop
  endfacet
  facet normal 1 0 0
    outer loop
      vertex 44 32.7 26
      vertex 44 30.7 30.6
      vertex 44 30.7 26
    endloop
  endfacet
  facet normal -1 0 0
    outer loop
      vertex 14 7.35 0
      vertex 14 25.35 2
      vertex 14 25.35 0
    endloop
  endfacet
  facet normal -1 -0 0
    outer loop
      vertex 14 25.35 2
      vertex 14 7.35 0
      vertex 14 7.35 2
    endloop
  endfacet
  facet normal 1 -0 0
    outer loop
      vertex 12 7.35 2
      vertex 12 25.35 0
      vertex 12 25.35 2
    endloop
  endfacet
  facet normal 1 0 0
    outer loop
      vertex 12 25.35 0
      vertex 12 7.35 2
      vertex 12 7.35 0
    endloop
  endfacet
  facet normal 0 -1 0
    outer loop
      vertex 12 25.35 0
      vertex 14 25.35 2
      vertex 12 25.35 2
    endloop
  endfacet
  facet normal 0 -1 -0
    outer loop
      vertex 14 25.35 2
      vertex 12 25.35 0
      vertex 14 25.35 0
    endloop
  endfacet
  facet normal 0 1 -0
    outer loop
      vertex 14 7.35 0
      vertex 12 7.35 2
      vertex 14 7.35 2
    endloop
  endfacet
  facet normal 0 1 0
    outer loop
      vertex 12 7.35 2
      vertex 14 7.35 0
      vertex 12 7.35 0
    endloop
  endfacet
  facet normal -1 0 0
    outer loop
      vertex 24 7.35 0
      vertex 24 25.35 2
      vertex 24 25.35 0
    endloop
  endfacet
  facet normal -1 -0 0
    outer loop
      vertex 24 25.35 2
      vertex 24 7.35 0
      vertex 24 7.35 2
    endloop
  endfacet
  facet normal 1 -0 0
    outer loop
      vertex 22 7.35 2
      vertex 22 25.35 0
      vertex 22 25.35 2
    endloop
  endfacet
  facet normal 1 0 0
    outer loop
      vertex 22 25.35 0
      vertex 22 7.35 2
      vertex 22 7.35 0
    endloop
  endfacet
  facet normal 0 -1 0
    outer loop
      vertex 22 25.35 0
      vertex 24 25.35 2
      vertex 22 25.35 2
    endloop
  endfacet
  facet normal 0 -1 -0
    outer loop
      vertex 24 25.35 2
      vertex 22 25.35 0
      vertex 24 25.35 0
    endloop
  endfacet
  facet normal 0 1 -0
    outer loop
      vertex 24 7.35 0
      vertex 22 7.35 2
      vertex 24 7.35 2
    endloop
  endfacet
  facet normal 0 1 0
    outer loop
      vertex 22 7.35 2
      vertex 24 7.35 0
      vertex 22 7.35 0
    endloop
  endfacet
  facet normal -1 0 0
    outer loop
      vertex 34 7.35 0
      vertex 34 25.35 2
      vertex 34 25.35 0
    endloop
  endfacet
  facet normal -1 -0 0
    outer loop
      vertex 34 25.35 2
      vertex 34 7.35 0
      vertex 34 7.35 2
    endloop
  endfacet
  facet normal 1 -0 0
    outer loop
      vertex 32 7.35 2
      vertex 32 25.35 0
      vertex 32 25.35 2
    endloop
  endfacet
  facet normal 1 0 0
    outer loop
      vertex 32 25.35 0
      vertex 32 7.35 2
      vertex 32 7.35 0
    endloop
  endfacet
  facet normal 0 -1 0
    outer loop
      vertex 32 25.35 0
      vertex 34 25.35 2
      vertex 32 25.35 2
    endloop
  endfacet
  facet normal 0 -1 -0
    outer loop
      vertex 34 25.35 2
      vertex 32 25.35 0
      vertex 34 25.35 0
    endloop
  endfacet
  facet normal 0 1 -0
    outer loop
      vertex 34 7.35 0
      vertex 32 7.35 2
      vertex 34 7.35 2
    endloop
  endfacet
  facet normal 0 1 0
    outer loop
      vertex 32 7.35 2
      vertex 34 7.35 0
      vertex 32 7.35 0
    endloop
  endfacet
  facet normal -1 0 0
    outer loop
      vertex 44 7.35 0
      vertex 44 25.35 2
      vertex 44 25.35 0
    endloop
  endfacet
  facet normal -1 -0 0
    outer loop
      vertex 44 25.35 2
      vertex 44 7.35 0
      vertex 44 7.35 2
    endloop
  endfacet
  facet normal 1 -0 0
    outer loop
      vertex 42 7.35 2
      vertex 42 25.35 0
      vertex 42 25.35 2
    endloop
  endfacet
  facet normal 1 0 0
    outer loop
      vertex 42 25.35 0
      vertex 42 7.35 2
      vertex 42 7.35 0
    endloop
  endfacet
  facet normal 0 -1 0
    outer loop
      vertex 42 25.35 0
      vertex 44 25.35 2
      vertex 42 25.35 2
    endloop
  endfacet
  facet normal 0 -1 -0
    outer loop
      vertex 44 25.35 2
      vertex 42 25.35 0
      vertex 44 25.35 0
    endloop
  endfacet
  facet normal 0 1 -0
    outer loop
      vertex 44 7.35 0
      vertex 42 7.35 2
      vertex 44 7.35 2
    endloop
  endfacet
  facet normal 0 1 0
    outer loop
      vertex 42 7.35 2
      vertex 44 7.35 0
      vertex 42 7.35 0
    endloop
  endfacet
  facet normal 1 -0 0
    outer loop
      vertex 59.2 0 31.6
      vertex 59.2 32.7 0
      vertex 59.2 32.7 31.6
    endloop
  endfacet
  facet normal 1 0 0
    outer loop
      vertex 59.2 32.7 0
      vertex 59.2 0 31.6
      vertex 59.2 0 0
    endloop
  endfacet
  facet normal 0 0 1
    outer loop
      vertex 2 9.85 31.6
      vertex 0 9.85 31.6
      vertex 2 2 31.6
    endloop
  endfacet
  facet normal 0 0 1
    outer loop
      vertex 59.2 32.7 31.6
      vertex 57.2 30.7 31.6
      vertex 59.2 0 31.6
    endloop
  endfacet
  facet normal 0 0 1
    outer loop
      vertex 59.2 32.7 31.6
      vertex 2 30.7 31.6
      vertex 57.2 30.7 31.6
    endloop
  endfacet
  facet normal -0 0 1
    outer loop
      vertex 0 32.7 31.6
      vertex 2 30.7 31.6
      vertex 59.2 32.7 31.6
    endloop
  endfacet
  facet normal 0 0 1
    outer loop
      vertex 0 22.85 31.6
      vertex 2 30.7 31.6
      vertex 0 32.7 31.6
    endloop
  endfacet
  facet normal 0 0 1
    outer loop
      vertex 2 30.7 31.6
      vertex 0 22.85 31.6
      vertex 2 22.85 31.6
    endloop
  endfacet
  facet normal -0 0 1
    outer loop
      vertex 57.2 2 31.6
      vertex 59.2 0 31.6
      vertex 57.2 30.7 31.6
    endloop
  endfacet
  facet normal -0 0 1
    outer loop
      vertex 2 2 31.6
      vertex 59.2 0 31.6
      vertex 57.2 2 31.6
    endloop
  endfacet
  facet normal 0 0 1
    outer loop
      vertex 2 2 31.6
      vertex 0 0 31.6
      vertex 59.2 0 31.6
    endloop
  endfacet
  facet normal 0 0 1
    outer loop
      vertex 0 0 31.6
      vertex 2 2 31.6
      vertex 0 9.85 31.6
    endloop
  endfacet
  facet normal 0 0 -1
    outer loop
      vertex 42 25.35 0
      vertex 43.2 32.7 0
      vertex 44 25.35 0
    endloop
  endfacet
  facet normal 0 0 -1
    outer loop
      vertex 34 25.35 0
      vertex 42 25.35 0
      vertex 34 7.35 0
    endloop
  endfacet
  facet normal 0 0 -1
    outer loop
      vertex 42 25.35 0
      vertex 34 25.35 0
      vertex 43.2 32.7 0
    endloop
  endfacet
  facet normal 0 0 -1
    outer loop
      vertex 32 25.35 0
      vertex 43.2 32.7 0
      vertex 34 25.35 0
    endloop
  endfacet
  facet normal 0 0 -1
    outer loop
      vertex 24 25.35 0
      vertex 32 25.35 0
      vertex 24 7.35 0
    endloop
  endfacet
  facet normal 0 0 -1
    outer loop
      vertex 16 32.7 0
      vertex 32 25.35 0
      vertex 24 25.35 0
    endloop
  endfacet
  facet normal 0 0 -1
    outer loop
      vertex 16 32.7 0
      vertex 24 25.35 0
      vertex 22 25.35 0
    endloop
  endfacet
  facet normal 0 0 -1
    outer loop
      vertex 32 25.35 0
      vertex 16 32.7 0
      vertex 43.2 32.7 0
    endloop
  endfacet
  facet normal 0 0 -1
    outer loop
      vertex 43.2 32.7 0
      vertex 48.6824 35.2681 0
      vertex 44 25.35 0
    endloop
  endfacet
  facet normal -0 0 -1
    outer loop
      vertex 48.6824 35.2681 0
      vertex 43.2 32.7 0
      vertex 48.2 35.4679 0
    endloop
  endfacet
  facet normal -0 0 -1
    outer loop
      vertex 48.2 35.4679 0
      vertex 43.2 32.7 0
      vertex 47.7858 35.7858 0
    endloop
  endfacet
  facet normal -0 0 -1
    outer loop
      vertex 47.7858 35.7858 0
      vertex 43.2 32.7 0
      vertex 47.4679 36.2 0
    endloop
  endfacet
  facet normal 0 0 -1
    outer loop
      vertex 44 25.35 0
      vertex 48.248 0 0
      vertex 44 7.35 0
    endloop
  endfacet
  facet normal 0 0 -1
    outer loop
      vertex 42.152 0 0
      vertex 48.248 0 0
      vertex 49.4 -2.39999 0
    endloop
  endfacet
  facet normal 0 0 -1
    outer loop
      vertex 48.248 0 0
      vertex 42.152 0 0
      vertex 44 7.35 0
    endloop
  endfacet
  facet normal 0 -0 -1
    outer loop
      vertex 42.152 0 0
      vertex 49.4 -2.39999 0
      vertex 41 -2.39999 0
    endloop
  endfacet
  facet normal 0 0 -1
    outer loop
      vertex 44 25.35 0
      vertex 59.2 32.7 0
      vertex 59.2 0 0
    endloop
  endfacet
  facet normal 0 0 -1
    outer loop
      vertex 55.2 32.7 0
      vertex 51.2 37.2 0
      vertex 55.2 40.7 0
    endloop
  endfacet
  facet normal 0 0 -1
    outer loop
      vertex 44 25.35 0
      vertex 59.2 0 0
      vertex 48.248 0 0
    endloop
  endfacet
  facet normal 0 0 -1
    outer loop
      vertex 55.2 32.7 0
      vertex 51.1319 36.6824 0
      vertex 51.2 37.2 0
    endloop
  endfacet
  facet normal 0 0 -1
    outer loop
      vertex 55.2 32.7 0
      vertex 50.932 36.2 0
      vertex 51.1319 36.6824 0
    endloop
  endfacet
  facet normal 0 0 -1
    outer loop
      vertex 55.2 32.7 0
      vertex 50.6142 35.7858 0
      vertex 50.932 36.2 0
    endloop
  endfacet
  facet normal 0 0 -1
    outer loop
      vertex 55.2 32.7 0
      vertex 50.2 35.4679 0
      vertex 50.6142 35.7858 0
    endloop
  endfacet
  facet normal 0 0 -1
    outer loop
      vertex 55.2 32.7 0
      vertex 49.7176 35.2681 0
      vertex 50.2 35.4679 0
    endloop
  endfacet
  facet normal -0 0 -1
    outer loop
      vertex 59.2 32.7 0
      vertex 44 25.35 0
      vertex 55.2 32.7 0
    endloop
  endfacet
  facet normal 0 0 -1
    outer loop
      vertex 55.2 32.7 0
      vertex 49.2 35.2 0
      vertex 49.7176 35.2681 0
    endloop
  endfacet
  facet normal 0 0 -1
    outer loop
      vertex 44 25.35 0
      vertex 49.2 35.2 0
      vertex 55.2 32.7 0
    endloop
  endfacet
  facet normal -0 0 -1
    outer loop
      vertex 49.2 35.2 0
      vertex 44 25.35 0
      vertex 48.6824 35.2681 0
    endloop
  endfacet
  facet normal 0 0 -1
    outer loop
      vertex 51.1319 37.7176 0
      vertex 55.2 40.7 0
      vertex 51.2 37.2 0
    endloop
  endfacet
  facet normal 0 0 -1
    outer loop
      vertex 50.932 38.2 0
      vertex 55.2 40.7 0
      vertex 51.1319 37.7176 0
    endloop
  endfacet
  facet normal 0 0 -1
    outer loop
      vertex 50.6142 38.6142 0
      vertex 55.2 40.7 0
      vertex 50.932 38.2 0
    endloop
  endfacet
  facet normal 0 0 -1
    outer loop
      vertex 50.2 38.932 0
      vertex 55.2 40.7 0
      vertex 50.6142 38.6142 0
    endloop
  endfacet
  facet normal 0 0 -1
    outer loop
      vertex 49.7176 39.1319 0
      vertex 55.2 40.7 0
      vertex 50.2 38.932 0
    endloop
  endfacet
  facet normal 0 0 -1
    outer loop
      vertex 49.2 39.2 0
      vertex 55.2 40.7 0
      vertex 49.7176 39.1319 0
    endloop
  endfacet
  facet normal 0 0 -1
    outer loop
      vertex 43.2 40.7 0
      vertex 49.2 39.2 0
      vertex 48.6824 39.1319 0
    endloop
  endfacet
  facet normal -0 0 -1
    outer loop
      vertex 47.4679 36.2 0
      vertex 43.2 32.7 0
      vertex 47.2681 36.6824 0
    endloop
  endfacet
  facet normal -0 0 -1
    outer loop
      vertex 47.2681 36.6824 0
      vertex 43.2 32.7 0
      vertex 47.2 37.2 0
    endloop
  endfacet
  facet normal 0 0 -1
    outer loop
      vertex 43.2 40.7 0
      vertex 47.2 37.2 0
      vertex 43.2 32.7 0
    endloop
  endfacet
  facet normal 0 0 -1
    outer loop
      vertex 47.2 37.2 0
      vertex 43.2 40.7 0
      vertex 47.2681 37.7176 0
    endloop
  endfacet
  facet normal 0 0 -1
    outer loop
      vertex 47.2681 37.7176 0
      vertex 43.2 40.7 0
      vertex 47.4679 38.2 0
    endloop
  endfacet
  facet normal 0 0 -1
    outer loop
      vertex 49.2 39.2 0
      vertex 43.2 40.7 0
      vertex 55.2 40.7 0
    endloop
  endfacet
  facet normal 0 0 -1
    outer loop
      vertex 48.2 38.932 0
      vertex 43.2 40.7 0
      vertex 48.6824 39.1319 0
    endloop
  endfacet
  facet normal 0 0 -1
    outer loop
      vertex 47.7858 38.6142 0
      vertex 43.2 40.7 0
      vertex 48.2 38.932 0
    endloop
  endfacet
  facet normal 0 0 -1
    outer loop
      vertex 47.4679 38.2 0
      vertex 43.2 40.7 0
      vertex 47.7858 38.6142 0
    endloop
  endfacet
  facet normal 0 0 -1
    outer loop
      vertex 42.152 0 0
      vertex 42 7.35 0
      vertex 44 7.35 0
    endloop
  endfacet
  facet normal 0 0 -1
    outer loop
      vertex 42 7.35 0
      vertex 34 7.35 0
      vertex 42 25.35 0
    endloop
  endfacet
  facet normal 0 0 -1
    outer loop
      vertex 42.152 0 0
      vertex 34 7.35 0
      vertex 42 7.35 0
    endloop
  endfacet
  facet normal 0 0 -1
    outer loop
      vertex 42.152 0 0
      vertex 32 7.35 0
      vertex 34 7.35 0
    endloop
  endfacet
  facet normal 0 0 -1
    outer loop
      vertex 32 7.35 0
      vertex 24 7.35 0
      vertex 32 25.35 0
    endloop
  endfacet
  facet normal 0 0 -1
    outer loop
      vertex 42.152 0 0
      vertex 24 7.35 0
      vertex 32 7.35 0
    endloop
  endfacet
  facet normal 0 0 -1
    outer loop
      vertex 42.152 0 0
      vertex 22 7.35 0
      vertex 24 7.35 0
    endloop
  endfacet
  facet normal 0 0 -1
    outer loop
      vertex 14 25.35 0
      vertex 22 25.35 0
      vertex 22 7.35 0
    endloop
  endfacet
  facet normal 0 0 -1
    outer loop
      vertex 22 25.35 0
      vertex 14 25.35 0
      vertex 16 32.7 0
    endloop
  endfacet
  facet normal 0 0 -1
    outer loop
      vertex 14 25.35 0
      vertex 22 7.35 0
      vertex 14 7.35 0
    endloop
  endfacet
  facet normal 0 0 -1
    outer loop
      vertex 0 0 0
      vertex 22 7.35 0
      vertex 42.152 0 0
    endloop
  endfacet
  facet normal -0 0 -1
    outer loop
      vertex 22 7.35 0
      vertex 0 0 0
      vertex 14 7.35 0
    endloop
  endfacet
  facet normal 0 0 -1
    outer loop
      vertex 0 32.7 0
      vertex 12 25.35 0
      vertex 12 7.35 0
    endloop
  endfacet
  facet normal 0 0 -1
    outer loop
      vertex 16 32.7 0
      vertex 11.9319 36.6824 0
      vertex 12 37.2 0
    endloop
  endfacet
  facet normal 0 0 -1
    outer loop
      vertex 16 32.7 0
      vertex 11.732 36.2 0
      vertex 11.9319 36.6824 0
    endloop
  endfacet
  facet normal 0 0 -1
    outer loop
      vertex 16 32.7 0
      vertex 11.4142 35.7858 0
      vertex 11.732 36.2 0
    endloop
  endfacet
  facet normal 0 0 -1
    outer loop
      vertex 16 32.7 0
      vertex 11 35.4679 0
      vertex 11.4142 35.7858 0
    endloop
  endfacet
  facet normal 0 0 -1
    outer loop
      vertex 16 32.7 0
      vertex 10.5176 35.2681 0
      vertex 11 35.4679 0
    endloop
  endfacet
  facet normal 0 -0 -1
    outer loop
      vertex 9.48236 35.2681 0
      vertex 12 25.35 0
      vertex 4 32.7 0
    endloop
  endfacet
  facet normal 0 0 -1
    outer loop
      vertex 12 25.35 0
      vertex 10 35.2 0
      vertex 10.5176 35.2681 0
    endloop
  endfacet
  facet normal 0 0 -1
    outer loop
      vertex 12 25.35 0
      vertex 9.48236 35.2681 0
      vertex 10 35.2 0
    endloop
  endfacet
  facet normal -0 0 -1
    outer loop
      vertex 9.48236 35.2681 0
      vertex 4 32.7 0
      vertex 9 35.4679 0
    endloop
  endfacet
  facet normal -0 0 -1
    outer loop
      vertex 9 35.4679 0
      vertex 4 32.7 0
      vertex 8.58579 35.7858 0
    endloop
  endfacet
  facet normal -0 0 -1
    outer loop
      vertex 8.58579 35.7858 0
      vertex 4 32.7 0
      vertex 8.26795 36.2 0
    endloop
  endfacet
  facet normal -0 0 -1
    outer loop
      vertex 8.06815 36.6824 0
      vertex 4 32.7 0
      vertex 8 37.2 0
    endloop
  endfacet
  facet normal -0 0 -1
    outer loop
      vertex 8.26795 36.2 0
      vertex 4 32.7 0
      vertex 8.06815 36.6824 0
    endloop
  endfacet
  facet normal -0 0 -1
    outer loop
      vertex 14 7.35 0
      vertex 0 0 0
      vertex 12 7.35 0
    endloop
  endfacet
  facet normal 0 0 -1
    outer loop
      vertex 0 32.7 0
      vertex 12 7.35 0
      vertex 0 0 0
    endloop
  endfacet
  facet normal 0 0 -1
    outer loop
      vertex 12 25.35 0
      vertex 0 32.7 0
      vertex 4 32.7 0
    endloop
  endfacet
  facet normal 0 0 -1
    outer loop
      vertex 12 25.35 0
      vertex 16 32.7 0
      vertex 14 25.35 0
    endloop
  endfacet
  facet normal 0 0 -1
    outer loop
      vertex 10.5176 35.2681 0
      vertex 16 32.7 0
      vertex 12 25.35 0
    endloop
  endfacet
  facet normal 0 0 -1
    outer loop
      vertex 16 32.7 0
      vertex 12 37.2 0
      vertex 16 40.7 0
    endloop
  endfacet
  facet normal 0 0 -1
    outer loop
      vertex 11.9319 37.7176 0
      vertex 16 40.7 0
      vertex 12 37.2 0
    endloop
  endfacet
  facet normal 0 0 -1
    outer loop
      vertex 11.732 38.2 0
      vertex 16 40.7 0
      vertex 11.9319 37.7176 0
    endloop
  endfacet
  facet normal 0 0 -1
    outer loop
      vertex 11.4142 38.6142 0
      vertex 16 40.7 0
      vertex 11.732 38.2 0
    endloop
  endfacet
  facet normal 0 0 -1
    outer loop
      vertex 11 38.932 0
      vertex 16 40.7 0
      vertex 11.4142 38.6142 0
    endloop
  endfacet
  facet normal 0 0 -1
    outer loop
      vertex 10.5176 39.1319 0
      vertex 16 40.7 0
      vertex 11 38.932 0
    endloop
  endfacet
  facet normal 0 0 -1
    outer loop
      vertex 10 39.2 0
      vertex 16 40.7 0
      vertex 10.5176 39.1319 0
    endloop
  endfacet
  facet normal 0 0 -1
    outer loop
      vertex 4 40.7 0
      vertex 10 39.2 0
      vertex 9.48236 39.1319 0
    endloop
  endfacet
  facet normal 0 0 -1
    outer loop
      vertex 4 40.7 0
      vertex 8 37.2 0
      vertex 4 32.7 0
    endloop
  endfacet
  facet normal 0 0 -1
    outer loop
      vertex 8 37.2 0
      vertex 4 40.7 0
      vertex 8.06815 37.7176 0
    endloop
  endfacet
  facet normal 0 0 -1
    outer loop
      vertex 8.06815 37.7176 0
      vertex 4 40.7 0
      vertex 8.26795 38.2 0
    endloop
  endfacet
  facet normal 0 0 -1
    outer loop
      vertex 10 39.2 0
      vertex 4 40.7 0
      vertex 16 40.7 0
    endloop
  endfacet
  facet normal 0 0 -1
    outer loop
      vertex 9 38.932 0
      vertex 4 40.7 0
      vertex 9.48236 39.1319 0
    endloop
  endfacet
  facet normal 0 0 -1
    outer loop
      vertex 8.58579 38.6142 0
      vertex 4 40.7 0
      vertex 9 38.932 0
    endloop
  endfacet
  facet normal 0 0 -1
    outer loop
      vertex 8.26795 38.2 0
      vertex 4 40.7 0
      vertex 8.58579 38.6142 0
    endloop
  endfacet
  facet normal -1 0 0
    outer loop
      vertex 0 32.7 0
      vertex 0 22.85 21
      vertex 0 32.7 31.6
    endloop
  endfacet
  facet normal -1 0 0
    outer loop
      vertex 0 32.7 0
      vertex 0 9.85 21
      vertex 0 22.85 21
    endloop
  endfacet
  facet normal -1 0 0
    outer loop
      vertex 0 0 0
      vertex 0 9.85 21
      vertex 0 32.7 0
    endloop
  endfacet
  facet normal -1 0 0
    outer loop
      vertex 0 0 31.6
      vertex 0 9.85 21
      vertex 0 0 0
    endloop
  endfacet
  facet normal -1 0 0
    outer loop
      vertex 0 9.85 21
      vertex 0 0 31.6
      vertex 0 9.85 31.6
    endloop
  endfacet
  facet normal -1 -0 0
    outer loop
      vertex 0 32.7 31.6
      vertex 0 22.85 21
      vertex 0 22.85 31.6
    endloop
  endfacet
  facet normal 0 1 -0
    outer loop
      vertex 43.2 32.7 0
      vertex 16 32.7 3
      vertex 43.2 32.7 3
    endloop
  endfacet
  facet normal 0 1 0
    outer loop
      vertex 16 32.7 3
      vertex 43.2 32.7 0
      vertex 16 32.7 0
    endloop
  endfacet
  facet normal 0 1 -0
    outer loop
      vertex 14 32.7 26
      vertex 10 32.7 30.6
      vertex 14 32.7 30.6
    endloop
  endfacet
  facet normal 0 1 0
    outer loop
      vertex 10 32.7 30.6
      vertex 14 32.7 26
      vertex 10 32.7 26
    endloop
  endfacet
  facet normal 0 1 -0
    outer loop
      vertex 20 32.7 26
      vertex 16 32.7 30.6
      vertex 20 32.7 30.6
    endloop
  endfacet
  facet normal 0 1 0
    outer loop
      vertex 16 32.7 30.6
      vertex 20 32.7 26
      vertex 16 32.7 26
    endloop
  endfacet
  facet normal 0 1 -0
    outer loop
      vertex 26 32.7 26
      vertex 22 32.7 30.6
      vertex 26 32.7 30.6
    endloop
  endfacet
  facet normal 0 1 0
    outer loop
      vertex 22 32.7 30.6
      vertex 26 32.7 26
      vertex 22 32.7 26
    endloop
  endfacet
  facet normal 0 1 -0
    outer loop
      vertex 32 32.7 26
      vertex 28 32.7 30.6
      vertex 32 32.7 30.6
    endloop
  endfacet
  facet normal 0 1 0
    outer loop
      vertex 28 32.7 30.6
      vertex 32 32.7 26
      vertex 28 32.7 26
    endloop
  endfacet
  facet normal 0 1 -0
    outer loop
      vertex 38 32.7 26
      vertex 34 32.7 30.6
      vertex 38 32.7 30.6
    endloop
  endfacet
  facet normal 0 1 0
    outer loop
      vertex 34 32.7 30.6
      vertex 38 32.7 26
      vertex 34 32.7 26
    endloop
  endfacet
  facet normal 0 1 -0
    outer loop
      vertex 44 32.7 26
      vertex 40 32.7 30.6
      vertex 44 32.7 30.6
    endloop
  endfacet
  facet normal 0 1 0
    outer loop
      vertex 40 32.7 30.6
      vertex 44 32.7 26
      vertex 40 32.7 26
    endloop
  endfacet
  facet normal 0 1 0
    outer loop
      vertex 44 32.7 30.6
      vertex 59.2 32.7 31.6
      vertex 46 32.7 30.6
    endloop
  endfacet
  facet normal 0 1 0
    outer loop
      vertex 59.2 32.7 31.6
      vertex 46 32.7 26
      vertex 46 32.7 30.6
    endloop
  endfacet
  facet normal 0 1 0
    outer loop
      vertex 43.2 32.7 3
      vertex 44 32.7 26
      vertex 46 32.7 26
    endloop
  endfacet
  facet normal 0 1 0
    outer loop
      vertex 44 32.7 26
      vertex 43.2 32.7 3
      vertex 40 32.7 26
    endloop
  endfacet
  facet normal 0 1 0
    outer loop
      vertex 40 32.7 26
      vertex 43.2 32.7 3
      vertex 38 32.7 26
    endloop
  endfacet
  facet normal 0 1 0
    outer loop
      vertex 38 32.7 26
      vertex 43.2 32.7 3
      vertex 34 32.7 26
    endloop
  endfacet
  facet normal 0 1 0
    outer loop
      vertex 34 32.7 26
      vertex 43.2 32.7 3
      vertex 32 32.7 26
    endloop
  endfacet
  facet normal 0 1 0
    outer loop
      vertex 32 32.7 26
      vertex 43.2 32.7 3
      vertex 28 32.7 26
    endloop
  endfacet
  facet normal 0 1 0
    outer loop
      vertex 16 32.7 3
      vertex 28 32.7 26
      vertex 43.2 32.7 3
    endloop
  endfacet
  facet normal 0 1 0
    outer loop
      vertex 28 32.7 26
      vertex 16 32.7 3
      vertex 26 32.7 26
    endloop
  endfacet
  facet normal 0 1 0
    outer loop
      vertex 26 32.7 26
      vertex 16 32.7 3
      vertex 22 32.7 26
    endloop
  endfacet
  facet normal 0 1 0
    outer loop
      vertex 22 32.7 26
      vertex 16 32.7 3
      vertex 20 32.7 26
    endloop
  endfacet
  facet normal 0 1 0
    outer loop
      vertex 20 32.7 26
      vertex 16 32.7 3
      vertex 16 32.7 26
    endloop
  endfacet
  facet normal 0 1 0
    outer loop
      vertex 14 32.7 26
      vertex 16 32.7 3
      vertex 10 32.7 26
    endloop
  endfacet
  facet normal 0 1 0
    outer loop
      vertex 43.2 32.7 3
      vertex 46 32.7 26
      vertex 55.2 32.7 3
    endloop
  endfacet
  facet normal 0 1 0
    outer loop
      vertex 59.2 32.7 31.6
      vertex 55.2 32.7 3
      vertex 46 32.7 26
    endloop
  endfacet
  facet normal 0 1 -0
    outer loop
      vertex 59.2 32.7 0
      vertex 55.2 32.7 3
      vertex 59.2 32.7 31.6
    endloop
  endfacet
  facet normal 0 1 0
    outer loop
      vertex 55.2 32.7 3
      vertex 59.2 32.7 0
      vertex 55.2 32.7 0
    endloop
  endfacet
  facet normal 0 1 0
    outer loop
      vertex 40 32.7 30.6
      vertex 59.2 32.7 31.6
      vertex 44 32.7 30.6
    endloop
  endfacet
  facet normal 0 1 0
    outer loop
      vertex 38 32.7 30.6
      vertex 59.2 32.7 31.6
      vertex 40 32.7 30.6
    endloop
  endfacet
  facet normal 0 1 0
    outer loop
      vertex 34 32.7 30.6
      vertex 59.2 32.7 31.6
      vertex 38 32.7 30.6
    endloop
  endfacet
  facet normal 0 1 0
    outer loop
      vertex 59.2 32.7 31.6
      vertex 34 32.7 30.6
      vertex 0 32.7 31.6
    endloop
  endfacet
  facet normal 0 1 -0
    outer loop
      vertex 32 32.7 30.6
      vertex 0 32.7 31.6
      vertex 34 32.7 30.6
    endloop
  endfacet
  facet normal 0 1 -0
    outer loop
      vertex 28 32.7 30.6
      vertex 0 32.7 31.6
      vertex 32 32.7 30.6
    endloop
  endfacet
  facet normal 0 1 -0
    outer loop
      vertex 26 32.7 30.6
      vertex 0 32.7 31.6
      vertex 28 32.7 30.6
    endloop
  endfacet
  facet normal 0 1 -0
    outer loop
      vertex 22 32.7 30.6
      vertex 0 32.7 31.6
      vertex 26 32.7 30.6
    endloop
  endfacet
  facet normal 0 1 -0
    outer loop
      vertex 20 32.7 30.6
      vertex 0 32.7 31.6
      vertex 22 32.7 30.6
    endloop
  endfacet
  facet normal 0 1 -0
    outer loop
      vertex 16 32.7 30.6
      vertex 0 32.7 31.6
      vertex 20 32.7 30.6
    endloop
  endfacet
  facet normal 0 1 -0
    outer loop
      vertex 14 32.7 30.6
      vertex 0 32.7 31.6
      vertex 16 32.7 30.6
    endloop
  endfacet
  facet normal 0 1 -0
    outer loop
      vertex 10 32.7 30.6
      vertex 0 32.7 31.6
      vertex 14 32.7 30.6
    endloop
  endfacet
  facet normal 0 1 -0
    outer loop
      vertex 8 32.7 30.6
      vertex 0 32.7 31.6
      vertex 10 32.7 30.6
    endloop
  endfacet
  facet normal 0 1 -0
    outer loop
      vertex 8 32.7 26
      vertex 0 32.7 31.6
      vertex 8 32.7 30.6
    endloop
  endfacet
  facet normal 0 1 0
    outer loop
      vertex 16 32.7 26
      vertex 16 32.7 3
      vertex 14 32.7 26
    endloop
  endfacet
  facet normal 0 1 0
    outer loop
      vertex 4 32.7 3
      vertex 10 32.7 26
      vertex 16 32.7 3
    endloop
  endfacet
  facet normal 0 1 0
    outer loop
      vertex 10 32.7 26
      vertex 4 32.7 3
      vertex 8 32.7 26
    endloop
  endfacet
  facet normal 0 1 0
    outer loop
      vertex 8 32.7 26
      vertex 4 32.7 3
      vertex 0 32.7 31.6
    endloop
  endfacet
  facet normal 0 1 0
    outer loop
      vertex 0 32.7 0
      vertex 4 32.7 3
      vertex 4 32.7 0
    endloop
  endfacet
  facet normal 0 1 0
    outer loop
      vertex 4 32.7 3
      vertex 0 32.7 0
      vertex 0 32.7 31.6
    endloop
  endfacet
  facet normal 0 -1 0
    outer loop
      vertex 28 0 26
      vertex 42.152 0 27
      vertex 28 0 30.6
    endloop
  endfacet
  facet normal 0 -1 0
    outer loop
      vertex 34 0 12
      vertex 28 0 26
      vertex 22 0 12
    endloop
  endfacet
  facet normal 0 -1 0
    outer loop
      vertex 28 0 26
      vertex 34 0 12
      vertex 42.152 0 27
    endloop
  endfacet
  facet normal 0 -1 0
    outer loop
      vertex 42.152 0 0
      vertex 34 0 12
      vertex 34 0 2
    endloop
  endfacet
  facet normal 0 -1 0
    outer loop
      vertex 34 0 12
      vertex 42.152 0 0
      vertex 42.152 0 27
    endloop
  endfacet
  facet normal 0 -1 0
    outer loop
      vertex 22 0 2
      vertex 42.152 0 0
      vertex 34 0 2
    endloop
  endfacet
  facet normal 0 -1 0
    outer loop
      vertex 22 0 26
      vertex 26 0 30.6
      vertex 22 0 30.6
    endloop
  endfacet
  facet normal 0 -1 -0
    outer loop
      vertex 26 0 30.6
      vertex 22 0 26
      vertex 26 0 26
    endloop
  endfacet
  facet normal 0 -1 0
    outer loop
      vertex 16 0 26
      vertex 20 0 30.6
      vertex 16 0 30.6
    endloop
  endfacet
  facet normal 0 -1 -0
    outer loop
      vertex 20 0 30.6
      vertex 16 0 26
      vertex 20 0 26
    endloop
  endfacet
  facet normal 0 -1 0
    outer loop
      vertex 10 0 26
      vertex 14 0 30.6
      vertex 10 0 30.6
    endloop
  endfacet
  facet normal 0 -1 -0
    outer loop
      vertex 14 0 30.6
      vertex 10 0 26
      vertex 14 0 26
    endloop
  endfacet
  facet normal 0 -1 0
    outer loop
      vertex 10 0 30.6
      vertex 0 0 31.6
      vertex 8 0 30.6
    endloop
  endfacet
  facet normal 0 -1 0
    outer loop
      vertex 0 0 31.6
      vertex 8 0 26
      vertex 8 0 30.6
    endloop
  endfacet
  facet normal 0 -1 0
    outer loop
      vertex 22 0 12
      vertex 10 0 26
      vertex 8 0 26
    endloop
  endfacet
  facet normal 0 -1 0
    outer loop
      vertex 10 0 26
      vertex 22 0 12
      vertex 14 0 26
    endloop
  endfacet
  facet normal 0 -1 0
    outer loop
      vertex 14 0 26
      vertex 22 0 12
      vertex 16 0 26
    endloop
  endfacet
  facet normal 0 -1 0
    outer loop
      vertex 16 0 26
      vertex 22 0 12
      vertex 20 0 26
    endloop
  endfacet
  facet normal 0 -1 0
    outer loop
      vertex 20 0 26
      vertex 22 0 12
      vertex 22 0 26
    endloop
  endfacet
  facet normal 0 -1 0
    outer loop
      vertex 22 0 26
      vertex 22 0 12
      vertex 26 0 26
    endloop
  endfacet
  facet normal 0 -1 -0
    outer loop
      vertex 26 0 26
      vertex 22 0 12
      vertex 28 0 26
    endloop
  endfacet
  facet normal 0 -1 0
    outer loop
      vertex 0 0 0
      vertex 8 0 26
      vertex 0 0 31.6
    endloop
  endfacet
  facet normal 0 -1 -0
    outer loop
      vertex 8 0 26
      vertex 0 0 0
      vertex 22 0 12
    endloop
  endfacet
  facet normal 0 -1 0
    outer loop
      vertex 42.152 0 0
      vertex 22 0 2
      vertex 0 0 0
    endloop
  endfacet
  facet normal 0 -1 -0
    outer loop
      vertex 22 0 12
      vertex 0 0 0
      vertex 22 0 2
    endloop
  endfacet
  facet normal 0 -1 0
    outer loop
      vertex 14 0 30.6
      vertex 0 0 31.6
      vertex 10 0 30.6
    endloop
  endfacet
  facet normal 0 -1 0
    outer loop
      vertex 16 0 30.6
      vertex 0 0 31.6
      vertex 14 0 30.6
    endloop
  endfacet
  facet normal 0 -1 0
    outer loop
      vertex 20 0 30.6
      vertex 0 0 31.6
      vertex 16 0 30.6
    endloop
  endfacet
  facet normal 0 -1 0
    outer loop
      vertex 22 0 30.6
      vertex 0 0 31.6
      vertex 20 0 30.6
    endloop
  endfacet
  facet normal 0 -1 0
    outer loop
      vertex 26 0 30.6
      vertex 0 0 31.6
      vertex 22 0 30.6
    endloop
  endfacet
  facet normal 0 -1 0
    outer loop
      vertex 0 0 31.6
      vertex 26 0 30.6
      vertex 59.2 0 31.6
    endloop
  endfacet
  facet normal 0 -1 0
    outer loop
      vertex 28 0 30.6
      vertex 59.2 0 31.6
      vertex 26 0 30.6
    endloop
  endfacet
  facet normal 0 -1 0
    outer loop
      vertex 42.152 0 27
      vertex 59.2 0 31.6
      vertex 28 0 30.6
    endloop
  endfacet
  facet normal 0 -1 0
    outer loop
      vertex 48.248 0 27
      vertex 59.2 0 31.6
      vertex 42.152 0 27
    endloop
  endfacet
  facet normal 0 -1 0
    outer loop
      vertex 59.2 0 0
      vertex 48.248 0 27
      vertex 48.248 0 0
    endloop
  endfacet
  facet normal 0 -1 0
    outer loop
      vertex 48.248 0 27
      vertex 59.2 0 0
      vertex 59.2 0 31.6
    endloop
  endfacet
  facet normal -1 0 0
    outer loop
      vertex 57.2 2 24
      vertex 57.2 30.7 31.6
      vertex 57.2 30.7 24
    endloop
  endfacet
  facet normal -1 -0 0
    outer loop
      vertex 57.2 30.7 31.6
      vertex 57.2 2 24
      vertex 57.2 2 31.6
    endloop
  endfacet
  facet normal 0 0 1
    outer loop
      vertex 54.7 30.7 2
      vertex 44 25.35 2
      vertex 54.7 2 2
    endloop
  endfacet
  facet normal 0 0 1
    outer loop
      vertex 54.7 30.7 2
      vertex 42 25.35 2
      vertex 44 25.35 2
    endloop
  endfacet
  facet normal 0 0 1
    outer loop
      vertex 42 25.35 2
      vertex 34 25.35 2
      vertex 42 7.35 2
    endloop
  endfacet
  facet normal 0 0 1
    outer loop
      vertex 54.7 30.7 2
      vertex 34 25.35 2
      vertex 42 25.35 2
    endloop
  endfacet
  facet normal 0 0 1
    outer loop
      vertex 54.7 30.7 2
      vertex 32 25.35 2
      vertex 34 25.35 2
    endloop
  endfacet
  facet normal 0 0 1
    outer loop
      vertex 32 25.35 2
      vertex 24 25.35 2
      vertex 32 7.35 2
    endloop
  endfacet
  facet normal -0 0 1
    outer loop
      vertex 4.5 30.7 2
      vertex 32 25.35 2
      vertex 54.7 30.7 2
    endloop
  endfacet
  facet normal 0 0 1
    outer loop
      vertex 32 25.35 2
      vertex 4.5 30.7 2
      vertex 24 25.35 2
    endloop
  endfacet
  facet normal 0 0 1
    outer loop
      vertex 14 7.35 2
      vertex 22 7.35 2
      vertex 22 25.35 2
    endloop
  endfacet
  facet normal 0 0 1
    outer loop
      vertex 14 7.35 2
      vertex 22 25.35 2
      vertex 14 25.35 2
    endloop
  endfacet
  facet normal 0 0 1
    outer loop
      vertex 24 25.35 2
      vertex 4.5 30.7 2
      vertex 22 25.35 2
    endloop
  endfacet
  facet normal 0 0 1
    outer loop
      vertex 22 25.35 2
      vertex 4.5 30.7 2
      vertex 14 25.35 2
    endloop
  endfacet
  facet normal 0 0 1
    outer loop
      vertex 12 25.35 2
      vertex 4.5 30.7 2
      vertex 12 7.35 2
    endloop
  endfacet
  facet normal 0 0 1
    outer loop
      vertex 14 25.35 2
      vertex 4.5 30.7 2
      vertex 12 25.35 2
    endloop
  endfacet
  facet normal -0 0 1
    outer loop
      vertex 44 7.35 2
      vertex 54.7 2 2
      vertex 44 25.35 2
    endloop
  endfacet
  facet normal 0 0 1
    outer loop
      vertex 34 2 2
      vertex 44 7.35 2
      vertex 42 7.35 2
    endloop
  endfacet
  facet normal 0 0 1
    outer loop
      vertex 34 7.35 2
      vertex 42 7.35 2
      vertex 34 25.35 2
    endloop
  endfacet
  facet normal 0 0 1
    outer loop
      vertex 34 2 2
      vertex 42 7.35 2
      vertex 34 7.35 2
    endloop
  endfacet
  facet normal 0 0 1
    outer loop
      vertex 44 7.35 2
      vertex 34 2 2
      vertex 54.7 2 2
    endloop
  endfacet
  facet normal -0 0 1
    outer loop
      vertex 32 7.35 2
      vertex 34 2 2
      vertex 34 7.35 2
    endloop
  endfacet
  facet normal 0 0 1
    outer loop
      vertex 22 2 2
      vertex 34 2 2
      vertex 32 7.35 2
    endloop
  endfacet
  facet normal 0 0 1
    outer loop
      vertex 24 7.35 2
      vertex 32 7.35 2
      vertex 24 25.35 2
    endloop
  endfacet
  facet normal 0 0 1
    outer loop
      vertex 22 2 2
      vertex 32 7.35 2
      vertex 24 7.35 2
    endloop
  endfacet
  facet normal 0 0 1
    outer loop
      vertex 22 2 2
      vertex 24 7.35 2
      vertex 22 7.35 2
    endloop
  endfacet
  facet normal 0 0 1
    outer loop
      vertex 34 2 2
      vertex 22 2 2
      vertex 34 0 2
    endloop
  endfacet
  facet normal 0 0 1
    outer loop
      vertex 34 0 2
      vertex 22 2 2
      vertex 22 0 2
    endloop
  endfacet
  facet normal 0 0 1
    outer loop
      vertex 22 7.35 2
      vertex 14 7.35 2
      vertex 22 2 2
    endloop
  endfacet
  facet normal 0 0 1
    outer loop
      vertex 4.5 2 2
      vertex 14 7.35 2
      vertex 12 7.35 2
    endloop
  endfacet
  facet normal 0 0 1
    outer loop
      vertex 14 7.35 2
      vertex 4.5 2 2
      vertex 22 2 2
    endloop
  endfacet
  facet normal 0 0 1
    outer loop
      vertex 4.5 2 2
      vertex 12 7.35 2
      vertex 4.5 30.7 2
    endloop
  endfacet
  facet normal 1 -0 0
    outer loop
      vertex 2 22.85 31.6
      vertex 2 30.7 24
      vertex 2 30.7 31.6
    endloop
  endfacet
  facet normal 1 0 0
    outer loop
      vertex 2 30.7 24
      vertex 2 22.85 31.6
      vertex 2 22.85 24
    endloop
  endfacet
  facet normal 1 -0 0
    outer loop
      vertex 2 2 31.6
      vertex 2 9.85 24
      vertex 2 9.85 31.6
    endloop
  endfacet
  facet normal 1 0 0
    outer loop
      vertex 2 9.85 24
      vertex 2 2 31.6
      vertex 2 2 24
    endloop
  endfacet
  facet normal -1 0 0
    outer loop
      vertex 2 9.85 21
      vertex 2 22.85 24
      vertex 2 22.85 21
    endloop
  endfacet
  facet normal -1 -0 0
    outer loop
      vertex 2 22.85 24
      vertex 2 9.85 21
      vertex 2 9.85 24
    endloop
  endfacet
  facet normal 0 -1 0
    outer loop
      vertex 38 30.7 26
      vertex 54.7 30.7 2
      vertex 40 30.7 26
    endloop
  endfacet
  facet normal 0 -1 0
    outer loop
      vertex 40 30.7 26
      vertex 54.7 30.7 2
      vertex 54.7 30.7 24
    endloop
  endfacet
  facet normal 0 -1 0
    outer loop
      vertex 40 30.7 26
      vertex 44 30.7 30.6
      vertex 40 30.7 30.6
    endloop
  endfacet
  facet normal 0 -1 -0
    outer loop
      vertex 44 30.7 30.6
      vertex 40 30.7 26
      vertex 44 30.7 26
    endloop
  endfacet
  facet normal 0 -1 0
    outer loop
      vertex 34 30.7 26
      vertex 38 30.7 30.6
      vertex 34 30.7 30.6
    endloop
  endfacet
  facet normal 0 -1 -0
    outer loop
      vertex 38 30.7 30.6
      vertex 34 30.7 26
      vertex 38 30.7 26
    endloop
  endfacet
  facet normal 0 -1 0
    outer loop
      vertex 28 30.7 26
      vertex 32 30.7 30.6
      vertex 28 30.7 30.6
    endloop
  endfacet
  facet normal 0 -1 -0
    outer loop
      vertex 32 30.7 30.6
      vertex 28 30.7 26
      vertex 32 30.7 26
    endloop
  endfacet
  facet normal 0 -1 0
    outer loop
      vertex 22 30.7 26
      vertex 26 30.7 30.6
      vertex 22 30.7 30.6
    endloop
  endfacet
  facet normal 0 -1 -0
    outer loop
      vertex 26 30.7 30.6
      vertex 22 30.7 26
      vertex 26 30.7 26
    endloop
  endfacet
  facet normal 0 -1 0
    outer loop
      vertex 16 30.7 26
      vertex 20 30.7 30.6
      vertex 16 30.7 30.6
    endloop
  endfacet
  facet normal 0 -1 -0
    outer loop
      vertex 20 30.7 30.6
      vertex 16 30.7 26
      vertex 20 30.7 26
    endloop
  endfacet
  facet normal 0 -1 0
    outer loop
      vertex 10 30.7 26
      vertex 14 30.7 30.6
      vertex 10 30.7 30.6
    endloop
  endfacet
  facet normal 0 -1 -0
    outer loop
      vertex 14 30.7 30.6
      vertex 10 30.7 26
      vertex 14 30.7 26
    endloop
  endfacet
  facet normal 0 -1 0
    outer loop
      vertex 10 30.7 30.6
      vertex 2 30.7 31.6
      vertex 8 30.7 30.6
    endloop
  endfacet
  facet normal 0 -1 0
    outer loop
      vertex 2 30.7 31.6
      vertex 8 30.7 26
      vertex 8 30.7 30.6
    endloop
  endfacet
  facet normal 0 -1 0
    outer loop
      vertex 4.5 30.7 24
      vertex 10 30.7 26
      vertex 8 30.7 26
    endloop
  endfacet
  facet normal 0 -1 0
    outer loop
      vertex 4.5 30.7 2
      vertex 10 30.7 26
      vertex 4.5 30.7 24
    endloop
  endfacet
  facet normal 0 -1 -0
    outer loop
      vertex 10 30.7 26
      vertex 4.5 30.7 2
      vertex 14 30.7 26
    endloop
  endfacet
  facet normal 0 -1 -0
    outer loop
      vertex 14 30.7 26
      vertex 4.5 30.7 2
      vertex 16 30.7 26
    endloop
  endfacet
  facet normal 0 -1 -0
    outer loop
      vertex 16 30.7 26
      vertex 4.5 30.7 2
      vertex 20 30.7 26
    endloop
  endfacet
  facet normal 0 -1 -0
    outer loop
      vertex 20 30.7 26
      vertex 4.5 30.7 2
      vertex 22 30.7 26
    endloop
  endfacet
  facet normal 0 -1 -0
    outer loop
      vertex 22 30.7 26
      vertex 4.5 30.7 2
      vertex 26 30.7 26
    endloop
  endfacet
  facet normal 0 -1 -0
    outer loop
      vertex 26 30.7 26
      vertex 4.5 30.7 2
      vertex 28 30.7 26
    endloop
  endfacet
  facet normal 0 -1 0
    outer loop
      vertex 54.7 30.7 2
      vertex 28 30.7 26
      vertex 4.5 30.7 2
    endloop
  endfacet
  facet normal 0 -1 0
    outer loop
      vertex 28 30.7 26
      vertex 54.7 30.7 2
      vertex 32 30.7 26
    endloop
  endfacet
  facet normal 0 -1 0
    outer loop
      vertex 32 30.7 26
      vertex 54.7 30.7 2
      vertex 34 30.7 26
    endloop
  endfacet
  facet normal 0 -1 0
    outer loop
      vertex 34 30.7 26
      vertex 54.7 30.7 2
      vertex 38 30.7 26
    endloop
  endfacet
  facet normal 0 -1 0
    outer loop
      vertex 2 30.7 31.6
      vertex 4.5 30.7 24
      vertex 8 30.7 26
    endloop
  endfacet
  facet normal 0 -1 0
    outer loop
      vertex 4.5 30.7 24
      vertex 2 30.7 31.6
      vertex 2 30.7 24
    endloop
  endfacet
  facet normal 0 -1 0
    outer loop
      vertex 14 30.7 30.6
      vertex 2 30.7 31.6
      vertex 10 30.7 30.6
    endloop
  endfacet
  facet normal 0 -1 0
    outer loop
      vertex 16 30.7 30.6
      vertex 2 30.7 31.6
      vertex 14 30.7 30.6
    endloop
  endfacet
  facet normal 0 -1 0
    outer loop
      vertex 20 30.7 30.6
      vertex 2 30.7 31.6
      vertex 16 30.7 30.6
    endloop
  endfacet
  facet normal 0 -1 0
    outer loop
      vertex 22 30.7 30.6
      vertex 2 30.7 31.6
      vertex 20 30.7 30.6
    endloop
  endfacet
  facet normal 0 -1 0
    outer loop
      vertex 26 30.7 30.6
      vertex 2 30.7 31.6
      vertex 22 30.7 30.6
    endloop
  endfacet
  facet normal 0 -1 0
    outer loop
      vertex 2 30.7 31.6
      vertex 26 30.7 30.6
      vertex 57.2 30.7 31.6
    endloop
  endfacet
  facet normal 0 -1 0
    outer loop
      vertex 28 30.7 30.6
      vertex 57.2 30.7 31.6
      vertex 26 30.7 30.6
    endloop
  endfacet
  facet normal 0 -1 0
    outer loop
      vertex 32 30.7 30.6
      vertex 57.2 30.7 31.6
      vertex 28 30.7 30.6
    endloop
  endfacet
  facet normal 0 -1 0
    outer loop
      vertex 34 30.7 30.6
      vertex 57.2 30.7 31.6
      vertex 32 30.7 30.6
    endloop
  endfacet
  facet normal 0 -1 0
    outer loop
      vertex 38 30.7 30.6
      vertex 57.2 30.7 31.6
      vertex 34 30.7 30.6
    endloop
  endfacet
  facet normal 0 -1 0
    outer loop
      vertex 40 30.7 30.6
      vertex 57.2 30.7 31.6
      vertex 38 30.7 30.6
    endloop
  endfacet
  facet normal 0 -1 0
    outer loop
      vertex 44 30.7 30.6
      vertex 57.2 30.7 31.6
      vertex 40 30.7 30.6
    endloop
  endfacet
  facet normal 0 -1 0
    outer loop
      vertex 46 30.7 30.6
      vertex 57.2 30.7 31.6
      vertex 44 30.7 30.6
    endloop
  endfacet
  facet normal 0 -1 0
    outer loop
      vertex 54.7 30.7 24
      vertex 46 30.7 30.6
      vertex 46 30.7 26
    endloop
  endfacet
  facet normal 0 -1 0
    outer loop
      vertex 40 30.7 26
      vertex 54.7 30.7 24
      vertex 44 30.7 26
    endloop
  endfacet
  facet normal 0 -1 0
    outer loop
      vertex 44 30.7 26
      vertex 54.7 30.7 24
      vertex 46 30.7 26
    endloop
  endfacet
  facet normal 0 -1 0
    outer loop
      vertex 46 30.7 30.6
      vertex 54.7 30.7 24
      vertex 57.2 30.7 31.6
    endloop
  endfacet
  facet normal 0 -1 -0
    outer loop
      vertex 57.2 30.7 31.6
      vertex 54.7 30.7 24
      vertex 57.2 30.7 24
    endloop
  endfacet
  facet normal 0 1 0
    outer loop
      vertex 16 2 26
      vertex 22 2 12
      vertex 14 2 26
    endloop
  endfacet
  facet normal 0 1 -0
    outer loop
      vertex 54.7 2 2
      vertex 34 2 12
      vertex 54.7 2 24
    endloop
  endfacet
  facet normal 0 1 0
    outer loop
      vertex 34 2 12
      vertex 54.7 2 2
      vertex 34 2 2
    endloop
  endfacet
  facet normal 0 1 0
    outer loop
      vertex 14 2 26
      vertex 22 2 12
      vertex 4.5 2 24
    endloop
  endfacet
  facet normal 0 1 0
    outer loop
      vertex 4.5 2 2
      vertex 22 2 12
      vertex 22 2 2
    endloop
  endfacet
  facet normal 0 1 0
    outer loop
      vertex 22 2 12
      vertex 4.5 2 2
      vertex 4.5 2 24
    endloop
  endfacet
  facet normal 0 1 -0
    outer loop
      vertex 14 2 26
      vertex 10 2 30.6
      vertex 14 2 30.6
    endloop
  endfacet
  facet normal 0 1 0
    outer loop
      vertex 10 2 30.6
      vertex 14 2 26
      vertex 10 2 26
    endloop
  endfacet
  facet normal 0 1 -0
    outer loop
      vertex 20 2 26
      vertex 16 2 30.6
      vertex 20 2 30.6
    endloop
  endfacet
  facet normal 0 1 0
    outer loop
      vertex 16 2 30.6
      vertex 20 2 26
      vertex 16 2 26
    endloop
  endfacet
  facet normal 0 1 -0
    outer loop
      vertex 26 2 26
      vertex 22 2 30.6
      vertex 26 2 30.6
    endloop
  endfacet
  facet normal 0 1 0
    outer loop
      vertex 22 2 30.6
      vertex 26 2 26
      vertex 22 2 26
    endloop
  endfacet
  facet normal 0 1 0
    outer loop
      vertex 57.2 2 31.6
      vertex 28 2 30.6
      vertex 2 2 31.6
    endloop
  endfacet
  facet normal 0 1 -0
    outer loop
      vertex 54.7 2 24
      vertex 28 2 30.6
      vertex 57.2 2 31.6
    endloop
  endfacet
  facet normal 0 1 0
    outer loop
      vertex 22 2 12
      vertex 28 2 26
      vertex 34 2 12
    endloop
  endfacet
  facet normal 0 1 0
    outer loop
      vertex 28 2 26
      vertex 22 2 12
      vertex 26 2 26
    endloop
  endfacet
  facet normal 0 1 0
    outer loop
      vertex 26 2 26
      vertex 22 2 12
      vertex 22 2 26
    endloop
  endfacet
  facet normal 0 1 0
    outer loop
      vertex 22 2 26
      vertex 22 2 12
      vertex 20 2 26
    endloop
  endfacet
  facet normal 0 1 0
    outer loop
      vertex 20 2 26
      vertex 22 2 12
      vertex 16 2 26
    endloop
  endfacet
  facet normal 0 1 0
    outer loop
      vertex 14 2 26
      vertex 4.5 2 24
      vertex 10 2 26
    endloop
  endfacet
  facet normal 0 1 0
    outer loop
      vertex 28 2 30.6
      vertex 54.7 2 24
      vertex 28 2 26
    endloop
  endfacet
  facet normal 0 1 0
    outer loop
      vertex 54.7 2 24
      vertex 57.2 2 31.6
      vertex 57.2 2 24
    endloop
  endfacet
  facet normal 0 1 -0
    outer loop
      vertex 26 2 30.6
      vertex 2 2 31.6
      vertex 28 2 30.6
    endloop
  endfacet
  facet normal 0 1 -0
    outer loop
      vertex 22 2 30.6
      vertex 2 2 31.6
      vertex 26 2 30.6
    endloop
  endfacet
  facet normal 0 1 -0
    outer loop
      vertex 20 2 30.6
      vertex 2 2 31.6
      vertex 22 2 30.6
    endloop
  endfacet
  facet normal 0 1 -0
    outer loop
      vertex 16 2 30.6
      vertex 2 2 31.6
      vertex 20 2 30.6
    endloop
  endfacet
  facet normal 0 1 -0
    outer loop
      vertex 14 2 30.6
      vertex 2 2 31.6
      vertex 16 2 30.6
    endloop
  endfacet
  facet normal 0 1 -0
    outer loop
      vertex 10 2 30.6
      vertex 2 2 31.6
      vertex 14 2 30.6
    endloop
  endfacet
  facet normal 0 1 -0
    outer loop
      vertex 8 2 30.6
      vertex 2 2 31.6
      vertex 10 2 30.6
    endloop
  endfacet
  facet normal 0 1 -0
    outer loop
      vertex 8 2 26
      vertex 2 2 31.6
      vertex 8 2 30.6
    endloop
  endfacet
  facet normal 0 1 -0
    outer loop
      vertex 34 2 12
      vertex 28 2 26
      vertex 54.7 2 24
    endloop
  endfacet
  facet normal 0 1 0
    outer loop
      vertex 10 2 26
      vertex 4.5 2 24
      vertex 8 2 26
    endloop
  endfacet
  facet normal 0 1 -0
    outer loop
      vertex 4.5 2 24
      vertex 2 2 31.6
      vertex 8 2 26
    endloop
  endfacet
  facet normal 0 1 0
    outer loop
      vertex 2 2 31.6
      vertex 4.5 2 24
      vertex 2 2 24
    endloop
  endfacet
  facet normal -0 0 1
    outer loop
      vertex 0 22.85 21
      vertex 2 9.85 21
      vertex 2 22.85 21
    endloop
  endfacet
  facet normal 0 0 1
    outer loop
      vertex 2 9.85 21
      vertex 0 22.85 21
      vertex 0 9.85 21
    endloop
  endfacet
  facet normal 0 -1 0
    outer loop
      vertex 0 22.85 31.6
      vertex 2 22.85 24
      vertex 2 22.85 31.6
    endloop
  endfacet
  facet normal 0 -1 0
    outer loop
      vertex 0 22.85 21
      vertex 2 22.85 24
      vertex 0 22.85 31.6
    endloop
  endfacet
  facet normal 0 -1 -0
    outer loop
      vertex 2 22.85 24
      vertex 0 22.85 21
      vertex 2 22.85 21
    endloop
  endfacet
  facet normal 0 1 -0
    outer loop
      vertex 2 9.85 24
      vertex 0 9.85 31.6
      vertex 2 9.85 31.6
    endloop
  endfacet
  facet normal 0 1 0
    outer loop
      vertex 0 9.85 21
      vertex 2 9.85 24
      vertex 2 9.85 21
    endloop
  endfacet
  facet normal 0 1 0
    outer loop
      vertex 2 9.85 24
      vertex 0 9.85 21
      vertex 0 9.85 31.6
    endloop
  endfacet
  facet normal -1 0 0
    outer loop
      vertex 34 0 2
      vertex 34 2 12
      vertex 34 2 2
    endloop
  endfacet
  facet normal -1 -0 0
    outer loop
      vertex 34 2 12
      vertex 34 0 2
      vertex 34 0 12
    endloop
  endfacet
  facet normal 0 0 -1
    outer loop
      vertex 22 0 12
      vertex 34 2 12
      vertex 34 0 12
    endloop
  endfacet
  facet normal -0 0 -1
    outer loop
      vertex 34 2 12
      vertex 22 0 12
      vertex 22 2 12
    endloop
  endfacet
  facet normal 1 -0 0
    outer loop
      vertex 22 0 12
      vertex 22 2 2
      vertex 22 2 12
    endloop
  endfacet
  facet normal 1 0 0
    outer loop
      vertex 22 2 2
      vertex 22 0 12
      vertex 22 0 2
    endloop
  endfacet
  facet normal 1 -0 0
    outer loop
      vertex 16 32.7 3
      vertex 16 40.7 0
      vertex 16 40.7 3
    endloop
  endfacet
  facet normal 1 0 0
    outer loop
      vertex 16 40.7 0
      vertex 16 32.7 3
      vertex 16 32.7 0
    endloop
  endfacet
  facet normal 0 0 1
    outer loop
      vertex 16 40.7 3
      vertex 12 37.2 3
      vertex 16 32.7 3
    endloop
  endfacet
  facet normal 0 0 1
    outer loop
      vertex 16 40.7 3
      vertex 11.9319 37.7176 3
      vertex 12 37.2 3
    endloop
  endfacet
  facet normal 0 0 1
    outer loop
      vertex 16 40.7 3
      vertex 11.732 38.2 3
      vertex 11.9319 37.7176 3
    endloop
  endfacet
  facet normal 0 0 1
    outer loop
      vertex 16 40.7 3
      vertex 11.4142 38.6142 3
      vertex 11.732 38.2 3
    endloop
  endfacet
  facet normal 0 0 1
    outer loop
      vertex 16 40.7 3
      vertex 11 38.932 3
      vertex 11.4142 38.6142 3
    endloop
  endfacet
  facet normal 0 0 1
    outer loop
      vertex 16 40.7 3
      vertex 10.5176 39.1319 3
      vertex 11 38.932 3
    endloop
  endfacet
  facet normal 0 0 1
    outer loop
      vertex 16 40.7 3
      vertex 10 39.2 3
      vertex 10.5176 39.1319 3
    endloop
  endfacet
  facet normal -0 0 1
    outer loop
      vertex 4 40.7 3
      vertex 10 39.2 3
      vertex 16 40.7 3
    endloop
  endfacet
  facet normal 0 0 1
    outer loop
      vertex 8.06815 37.7176 3
      vertex 4 40.7 3
      vertex 8 37.2 3
    endloop
  endfacet
  facet normal 0 0 1
    outer loop
      vertex 8.26795 38.2 3
      vertex 4 40.7 3
      vertex 8.06815 37.7176 3
    endloop
  endfacet
  facet normal 0 0 1
    outer loop
      vertex 8.58579 38.6142 3
      vertex 4 40.7 3
      vertex 8.26795 38.2 3
    endloop
  endfacet
  facet normal 0 0 1
    outer loop
      vertex 9 38.932 3
      vertex 4 40.7 3
      vertex 8.58579 38.6142 3
    endloop
  endfacet
  facet normal 0 0 1
    outer loop
      vertex 9.48236 39.1319 3
      vertex 4 40.7 3
      vertex 9 38.932 3
    endloop
  endfacet
  facet normal 0 0 1
    outer loop
      vertex 10 39.2 3
      vertex 4 40.7 3
      vertex 9.48236 39.1319 3
    endloop
  endfacet
  facet normal -0 0 1
    outer loop
      vertex 11.9319 36.6824 3
      vertex 16 32.7 3
      vertex 12 37.2 3
    endloop
  endfacet
  facet normal -0 0 1
    outer loop
      vertex 11.732 36.2 3
      vertex 16 32.7 3
      vertex 11.9319 36.6824 3
    endloop
  endfacet
  facet normal -0 0 1
    outer loop
      vertex 11.4142 35.7858 3
      vertex 16 32.7 3
      vertex 11.732 36.2 3
    endloop
  endfacet
  facet normal -0 0 1
    outer loop
      vertex 11 35.4679 3
      vertex 16 32.7 3
      vertex 11.4142 35.7858 3
    endloop
  endfacet
  facet normal -0 0 1
    outer loop
      vertex 10.5176 35.2681 3
      vertex 16 32.7 3
      vertex 11 35.4679 3
    endloop
  endfacet
  facet normal -0 0 1
    outer loop
      vertex 10 35.2 3
      vertex 16 32.7 3
      vertex 10.5176 35.2681 3
    endloop
  endfacet
  facet normal 0 0 1
    outer loop
      vertex 4 32.7 3
      vertex 10 35.2 3
      vertex 9.48236 35.2681 3
    endloop
  endfacet
  facet normal 0 0 1
    outer loop
      vertex 4 32.7 3
      vertex 8 37.2 3
      vertex 4 40.7 3
    endloop
  endfacet
  facet normal 0 0 1
    outer loop
      vertex 8 37.2 3
      vertex 4 32.7 3
      vertex 8.06815 36.6824 3
    endloop
  endfacet
  facet normal 0 0 1
    outer loop
      vertex 8.06815 36.6824 3
      vertex 4 32.7 3
      vertex 8.26795 36.2 3
    endloop
  endfacet
  facet normal 0 0 1
    outer loop
      vertex 10 35.2 3
      vertex 4 32.7 3
      vertex 16 32.7 3
    endloop
  endfacet
  facet normal 0 0 1
    outer loop
      vertex 9 35.4679 3
      vertex 4 32.7 3
      vertex 9.48236 35.2681 3
    endloop
  endfacet
  facet normal 0 0 1
    outer loop
      vertex 8.58579 35.7858 3
      vertex 4 32.7 3
      vertex 9 35.4679 3
    endloop
  endfacet
  facet normal 0 0 1
    outer loop
      vertex 8.26795 36.2 3
      vertex 4 32.7 3
      vertex 8.58579 35.7858 3
    endloop
  endfacet
  facet normal -1 0 0
    outer loop
      vertex 4 32.7 0
      vertex 4 40.7 3
      vertex 4 40.7 0
    endloop
  endfacet
  facet normal -1 -0 0
    outer loop
      vertex 4 40.7 3
      vertex 4 32.7 0
      vertex 4 32.7 3
    endloop
  endfacet
  facet normal 0 1 -0
    outer loop
      vertex 16 40.7 0
      vertex 4 40.7 3
      vertex 16 40.7 3
    endloop
  endfacet
  facet normal 0 1 0
    outer loop
      vertex 4 40.7 3
      vertex 16 40.7 0
      vertex 4 40.7 0
    endloop
  endfacet
  facet normal -0.923823 -0.38282 0
    outer loop
      vertex 11.9319 37.7176 0
      vertex 11.732 38.2 3
      vertex 11.732 38.2 0
    endloop
  endfacet
  facet normal -0.923823 -0.38282 0
    outer loop
      vertex 11.732 38.2 3
      vertex 11.9319 37.7176 0
      vertex 11.9319 37.7176 3
    endloop
  endfacet
  facet normal -0.991456 -0.130445 0
    outer loop
      vertex 12 37.2 0
      vertex 11.9319 37.7176 3
      vertex 11.9319 37.7176 0
    endloop
  endfacet
  facet normal -0.991456 -0.130445 0
    outer loop
      vertex 11.9319 37.7176 3
      vertex 12 37.2 0
      vertex 12 37.2 3
    endloop
  endfacet
  facet normal -0.793378 -0.608729 0
    outer loop
      vertex 11.732 38.2 0
      vertex 11.4142 38.6142 3
      vertex 11.4142 38.6142 0
    endloop
  endfacet
  facet normal -0.793378 -0.608729 0
    outer loop
      vertex 11.4142 38.6142 3
      vertex 11.732 38.2 0
      vertex 11.732 38.2 3
    endloop
  endfacet
  facet normal -0.382656 0.923891 0
    outer loop
      vertex 11 35.4679 0
      vertex 10.5176 35.2681 3
      vertex 11 35.4679 3
    endloop
  endfacet
  facet normal -0.382656 0.923891 0
    outer loop
      vertex 10.5176 35.2681 3
      vertex 11 35.4679 0
      vertex 10.5176 35.2681 0
    endloop
  endfacet
  facet normal -0.608729 -0.793378 0
    outer loop
      vertex 11 38.932 0
      vertex 11.4142 38.6142 3
      vertex 11 38.932 3
    endloop
  endfacet
  facet normal -0.608729 -0.793378 -0
    outer loop
      vertex 11.4142 38.6142 3
      vertex 11 38.932 0
      vertex 11.4142 38.6142 0
    endloop
  endfacet
  facet normal 0.793341 -0.608777 0
    outer loop
      vertex 8.26795 38.2 3
      vertex 8.58579 38.6142 0
      vertex 8.58579 38.6142 3
    endloop
  endfacet
  facet normal 0.793341 -0.608777 0
    outer loop
      vertex 8.58579 38.6142 0
      vertex 8.26795 38.2 3
      vertex 8.26795 38.2 0
    endloop
  endfacet
  facet normal -0.991456 0.130445 0
    outer loop
      vertex 11.9319 36.6824 0
      vertex 12 37.2 3
      vertex 12 37.2 0
    endloop
  endfacet
  facet normal -0.991456 0.130445 0
    outer loop
      vertex 12 37.2 3
      vertex 11.9319 36.6824 0
      vertex 11.9319 36.6824 3
    endloop
  endfacet
  facet normal 0.923891 -0.382656 0
    outer loop
      vertex 8.06815 37.7176 3
      vertex 8.26795 38.2 0
      vertex 8.26795 38.2 3
    endloop
  endfacet
  facet normal 0.923891 -0.382656 0
    outer loop
      vertex 8.26795 38.2 0
      vertex 8.06815 37.7176 3
      vertex 8.06815 37.7176 0
    endloop
  endfacet
  facet normal -0.38282 -0.923823 0
    outer loop
      vertex 10.5176 39.1319 0
      vertex 11 38.932 3
      vertex 10.5176 39.1319 3
    endloop
  endfacet
  facet normal -0.38282 -0.923823 -0
    outer loop
      vertex 11 38.932 3
      vertex 10.5176 39.1319 0
      vertex 11 38.932 0
    endloop
  endfacet
  facet normal 0.60884 0.793293 -0
    outer loop
      vertex 9 35.4679 0
      vertex 8.58579 35.7858 3
      vertex 9 35.4679 3
    endloop
  endfacet
  facet normal 0.60884 0.793293 0
    outer loop
      vertex 8.58579 35.7858 3
      vertex 9 35.4679 0
      vertex 8.58579 35.7858 0
    endloop
  endfacet
  facet normal -0.130445 -0.991456 0
    outer loop
      vertex 10 39.2 0
      vertex 10.5176 39.1319 3
      vertex 10 39.2 3
    endloop
  endfacet
  facet normal -0.130445 -0.991456 -0
    outer loop
      vertex 10.5176 39.1319 3
      vertex 10 39.2 0
      vertex 10.5176 39.1319 0
    endloop
  endfacet
  facet normal 0.60872 -0.793385 0
    outer loop
      vertex 8.58579 38.6142 0
      vertex 9 38.932 3
      vertex 8.58579 38.6142 3
    endloop
  endfacet
  facet normal 0.60872 -0.793385 0
    outer loop
      vertex 9 38.932 3
      vertex 8.58579 38.6142 0
      vertex 9 38.932 0
    endloop
  endfacet
  facet normal 0.130435 -0.991457 0
    outer loop
      vertex 9.48236 39.1319 0
      vertex 10 39.2 3
      vertex 9.48236 39.1319 3
    endloop
  endfacet
  facet normal 0.130435 -0.991457 0
    outer loop
      vertex 10 39.2 3
      vertex 9.48236 39.1319 0
      vertex 10 39.2 0
    endloop
  endfacet
  facet normal -0.923823 0.38282 0
    outer loop
      vertex 11.732 36.2 0
      vertex 11.9319 36.6824 3
      vertex 11.9319 36.6824 0
    endloop
  endfacet
  facet normal -0.923823 0.38282 0
    outer loop
      vertex 11.9319 36.6824 3
      vertex 11.732 36.2 0
      vertex 11.732 36.2 3
    endloop
  endfacet
  facet normal 0.130435 0.991457 -0
    outer loop
      vertex 10 35.2 0
      vertex 9.48236 35.2681 3
      vertex 10 35.2 3
    endloop
  endfacet
  facet normal 0.130435 0.991457 0
    outer loop
      vertex 9.48236 35.2681 3
      vertex 10 35.2 0
      vertex 9.48236 35.2681 0
    endloop
  endfacet
  facet normal -0.130445 0.991456 0
    outer loop
      vertex 10.5176 35.2681 0
      vertex 10 35.2 3
      vertex 10.5176 35.2681 3
    endloop
  endfacet
  facet normal -0.130445 0.991456 0
    outer loop
      vertex 10 35.2 3
      vertex 10.5176 35.2681 0
      vertex 10 35.2 0
    endloop
  endfacet
  facet normal 0.923891 0.382656 0
    outer loop
      vertex 8.26795 36.2 3
      vertex 8.06815 36.6824 0
      vertex 8.06815 36.6824 3
    endloop
  endfacet
  facet normal 0.923891 0.382656 0
    outer loop
      vertex 8.06815 36.6824 0
      vertex 8.26795 36.2 3
      vertex 8.26795 36.2 0
    endloop
  endfacet
  facet normal 0.382847 -0.923812 0
    outer loop
      vertex 9 38.932 0
      vertex 9.48236 39.1319 3
      vertex 9 38.932 3
    endloop
  endfacet
  facet normal 0.382847 -0.923812 0
    outer loop
      vertex 9.48236 39.1319 3
      vertex 9 38.932 0
      vertex 9.48236 39.1319 0
    endloop
  endfacet
  facet normal 0.382683 0.92388 -0
    outer loop
      vertex 9.48236 35.2681 0
      vertex 9 35.4679 3
      vertex 9.48236 35.2681 3
    endloop
  endfacet
  facet normal 0.382683 0.92388 0
    outer loop
      vertex 9 35.4679 3
      vertex 9.48236 35.2681 0
      vertex 9 35.4679 0
    endloop
  endfacet
  facet normal 0.991443 -0.130539 0
    outer loop
      vertex 8 37.2 3
      vertex 8.06815 37.7176 0
      vertex 8.06815 37.7176 3
    endloop
  endfacet
  facet normal 0.991443 -0.130539 0
    outer loop
      vertex 8.06815 37.7176 0
      vertex 8 37.2 3
      vertex 8 37.2 0
    endloop
  endfacet
  facet normal -0.60885 0.793286 0
    outer loop
      vertex 11.4142 35.7858 0
      vertex 11 35.4679 3
      vertex 11.4142 35.7858 3
    endloop
  endfacet
  facet normal -0.60885 0.793286 0
    outer loop
      vertex 11 35.4679 3
      vertex 11.4142 35.7858 0
      vertex 11 35.4679 0
    endloop
  endfacet
  facet normal -0.793378 0.608729 0
    outer loop
      vertex 11.4142 35.7858 0
      vertex 11.732 36.2 3
      vertex 11.732 36.2 0
    endloop
  endfacet
  facet normal -0.793378 0.608729 0
    outer loop
      vertex 11.732 36.2 3
      vertex 11.4142 35.7858 0
      vertex 11.4142 35.7858 3
    endloop
  endfacet
  facet normal 0.991443 0.130539 0
    outer loop
      vertex 8.06815 36.6824 3
      vertex 8 37.2 0
      vertex 8 37.2 3
    endloop
  endfacet
  facet normal 0.991443 0.130539 0
    outer loop
      vertex 8 37.2 0
      vertex 8.06815 36.6824 3
      vertex 8.06815 36.6824 0
    endloop
  endfacet
  facet normal 0.793341 0.608777 0
    outer loop
      vertex 8.58579 35.7858 3
      vertex 8.26795 36.2 0
      vertex 8.26795 36.2 3
    endloop
  endfacet
  facet normal 0.793341 0.608777 0
    outer loop
      vertex 8.26795 36.2 0
      vertex 8.58579 35.7858 3
      vertex 8.58579 35.7858 0
    endloop
  endfacet
  facet normal 1 -0 0
    outer loop
      vertex 55.2 32.7 3
      vertex 55.2 40.7 0
      vertex 55.2 40.7 3
    endloop
  endfacet
  facet normal 1 0 0
    outer loop
      vertex 55.2 40.7 0
      vertex 55.2 32.7 3
      vertex 55.2 32.7 0
    endloop
  endfacet
  facet normal 0 0 1
    outer loop
      vertex 55.2 40.7 3
      vertex 51.2 37.2 3
      vertex 55.2 32.7 3
    endloop
  endfacet
  facet normal 0 0 1
    outer loop
      vertex 55.2 40.7 3
      vertex 51.1319 37.7176 3
      vertex 51.2 37.2 3
    endloop
  endfacet
  facet normal 0 0 1
    outer loop
      vertex 55.2 40.7 3
      vertex 50.932 38.2 3
      vertex 51.1319 37.7176 3
    endloop
  endfacet
  facet normal 0 0 1
    outer loop
      vertex 55.2 40.7 3
      vertex 50.6142 38.6142 3
      vertex 50.932 38.2 3
    endloop
  endfacet
  facet normal 0 0 1
    outer loop
      vertex 55.2 40.7 3
      vertex 50.2 38.932 3
      vertex 50.6142 38.6142 3
    endloop
  endfacet
  facet normal 0 0 1
    outer loop
      vertex 55.2 40.7 3
      vertex 49.7176 39.1319 3
      vertex 50.2 38.932 3
    endloop
  endfacet
  facet normal 0 0 1
    outer loop
      vertex 55.2 40.7 3
      vertex 49.2 39.2 3
      vertex 49.7176 39.1319 3
    endloop
  endfacet
  facet normal -0 0 1
    outer loop
      vertex 43.2 40.7 3
      vertex 49.2 39.2 3
      vertex 55.2 40.7 3
    endloop
  endfacet
  facet normal 0 0 1
    outer loop
      vertex 47.2681 37.7176 3
      vertex 43.2 40.7 3
      vertex 47.2 37.2 3
    endloop
  endfacet
  facet normal 0 0 1
    outer loop
      vertex 47.4679 38.2 3
      vertex 43.2 40.7 3
      vertex 47.2681 37.7176 3
    endloop
  endfacet
  facet normal 0 0 1
    outer loop
      vertex 47.7858 38.6142 3
      vertex 43.2 40.7 3
      vertex 47.4679 38.2 3
    endloop
  endfacet
  facet normal 0 0 1
    outer loop
      vertex 48.2 38.932 3
      vertex 43.2 40.7 3
      vertex 47.7858 38.6142 3
    endloop
  endfacet
  facet normal 0 0 1
    outer loop
      vertex 48.6824 39.1319 3
      vertex 43.2 40.7 3
      vertex 48.2 38.932 3
    endloop
  endfacet
  facet normal 0 0 1
    outer loop
      vertex 49.2 39.2 3
      vertex 43.2 40.7 3
      vertex 48.6824 39.1319 3
    endloop
  endfacet
  facet normal -0 0 1
    outer loop
      vertex 51.1319 36.6824 3
      vertex 55.2 32.7 3
      vertex 51.2 37.2 3
    endloop
  endfacet
  facet normal -0 0 1
    outer loop
      vertex 50.932 36.2 3
      vertex 55.2 32.7 3
      vertex 51.1319 36.6824 3
    endloop
  endfacet
  facet normal -0 0 1
    outer loop
      vertex 50.6142 35.7858 3
      vertex 55.2 32.7 3
      vertex 50.932 36.2 3
    endloop
  endfacet
  facet normal -0 0 1
    outer loop
      vertex 50.2 35.4679 3
      vertex 55.2 32.7 3
      vertex 50.6142 35.7858 3
    endloop
  endfacet
  facet normal -0 0 1
    outer loop
      vertex 49.7176 35.2681 3
      vertex 55.2 32.7 3
      vertex 50.2 35.4679 3
    endloop
  endfacet
  facet normal -0 0 1
    outer loop
      vertex 49.2 35.2 3
      vertex 55.2 32.7 3
      vertex 49.7176 35.2681 3
    endloop
  endfacet
  facet normal 0 0 1
    outer loop
      vertex 43.2 32.7 3
      vertex 49.2 35.2 3
      vertex 48.6824 35.2681 3
    endloop
  endfacet
  facet normal 0 0 1
    outer loop
      vertex 43.2 32.7 3
      vertex 47.2 37.2 3
      vertex 43.2 40.7 3
    endloop
  endfacet
  facet normal 0 0 1
    outer loop
      vertex 47.2 37.2 3
      vertex 43.2 32.7 3
      vertex 47.2681 36.6824 3
    endloop
  endfacet
  facet normal 0 0 1
    outer loop
      vertex 47.2681 36.6824 3
      vertex 43.2 32.7 3
      vertex 47.4679 36.2 3
    endloop
  endfacet
  facet normal 0 0 1
    outer loop
      vertex 49.2 35.2 3
      vertex 43.2 32.7 3
      vertex 55.2 32.7 3
    endloop
  endfacet
  facet normal 0 0 1
    outer loop
      vertex 48.2 35.4679 3
      vertex 43.2 32.7 3
      vertex 48.6824 35.2681 3
    endloop
  endfacet
  facet normal 0 0 1
    outer loop
      vertex 47.7858 35.7858 3
      vertex 43.2 32.7 3
      vertex 48.2 35.4679 3
    endloop
  endfacet
  facet normal 0 0 1
    outer loop
      vertex 47.4679 36.2 3
      vertex 43.2 32.7 3
      vertex 47.7858 35.7858 3
    endloop
  endfacet
  facet normal -1 0 0
    outer loop
      vertex 43.2 32.7 0
      vertex 43.2 40.7 3
      vertex 43.2 40.7 0
    endloop
  endfacet
  facet normal -1 -0 0
    outer loop
      vertex 43.2 40.7 3
      vertex 43.2 32.7 0
      vertex 43.2 32.7 3
    endloop
  endfacet
  facet normal 0 1 -0
    outer loop
      vertex 55.2 40.7 0
      vertex 43.2 40.7 3
      vertex 55.2 40.7 3
    endloop
  endfacet
  facet normal 0 1 0
    outer loop
      vertex 43.2 40.7 3
      vertex 55.2 40.7 0
      vertex 43.2 40.7 0
    endloop
  endfacet
  facet normal -0.923823 -0.38282 0
    outer loop
      vertex 51.1319 37.7176 0
      vertex 50.932 38.2 3
      vertex 50.932 38.2 0
    endloop
  endfacet
  facet normal -0.923823 -0.38282 0
    outer loop
      vertex 50.932 38.2 3
      vertex 51.1319 37.7176 0
      vertex 51.1319 37.7176 3
    endloop
  endfacet
  facet normal -0.991456 -0.130445 0
    outer loop
      vertex 51.2 37.2 0
      vertex 51.1319 37.7176 3
      vertex 51.1319 37.7176 0
    endloop
  endfacet
  facet normal -0.991456 -0.130445 0
    outer loop
      vertex 51.1319 37.7176 3
      vertex 51.2 37.2 0
      vertex 51.2 37.2 3
    endloop
  endfacet
  facet normal -0.793378 -0.608729 0
    outer loop
      vertex 50.932 38.2 0
      vertex 50.6142 38.6142 3
      vertex 50.6142 38.6142 0
    endloop
  endfacet
  facet normal -0.793378 -0.608729 0
    outer loop
      vertex 50.6142 38.6142 3
      vertex 50.932 38.2 0
      vertex 50.932 38.2 3
    endloop
  endfacet
  facet normal -0.382656 0.923891 0
    outer loop
      vertex 50.2 35.4679 0
      vertex 49.7176 35.2681 3
      vertex 50.2 35.4679 3
    endloop
  endfacet
  facet normal -0.382656 0.923891 0
    outer loop
      vertex 49.7176 35.2681 3
      vertex 50.2 35.4679 0
      vertex 49.7176 35.2681 0
    endloop
  endfacet
  facet normal -0.608729 -0.793378 0
    outer loop
      vertex 50.2 38.932 0
      vertex 50.6142 38.6142 3
      vertex 50.2 38.932 3
    endloop
  endfacet
  facet normal -0.608729 -0.793378 -0
    outer loop
      vertex 50.6142 38.6142 3
      vertex 50.2 38.932 0
      vertex 50.6142 38.6142 0
    endloop
  endfacet
  facet normal 0.793286 -0.60885 0
    outer loop
      vertex 47.4679 38.2 3
      vertex 47.7858 38.6142 0
      vertex 47.7858 38.6142 3
    endloop
  endfacet
  facet normal 0.793286 -0.60885 0
    outer loop
      vertex 47.7858 38.6142 0
      vertex 47.4679 38.2 3
      vertex 47.4679 38.2 0
    endloop
  endfacet
  facet normal -0.991456 0.130445 0
    outer loop
      vertex 51.1319 36.6824 0
      vertex 51.2 37.2 3
      vertex 51.2 37.2 0
    endloop
  endfacet
  facet normal -0.991456 0.130445 0
    outer loop
      vertex 51.2 37.2 3
      vertex 51.1319 36.6824 0
      vertex 51.1319 36.6824 3
    endloop
  endfacet
  facet normal 0.923891 -0.382656 0
    outer loop
      vertex 47.2681 37.7176 3
      vertex 47.4679 38.2 0
      vertex 47.4679 38.2 3
    endloop
  endfacet
  facet normal 0.923891 -0.382656 0
    outer loop
      vertex 47.4679 38.2 0
      vertex 47.2681 37.7176 3
      vertex 47.2681 37.7176 0
    endloop
  endfacet
  facet normal -0.38282 -0.923823 0
    outer loop
      vertex 49.7176 39.1319 0
      vertex 50.2 38.932 3
      vertex 49.7176 39.1319 3
    endloop
  endfacet
  facet normal -0.38282 -0.923823 -0
    outer loop
      vertex 50.2 38.932 3
      vertex 49.7176 39.1319 0
      vertex 50.2 38.932 0
    endloop
  endfacet
  facet normal 0.60885 0.793286 -0
    outer loop
      vertex 48.2 35.4679 0
      vertex 47.7858 35.7858 3
      vertex 48.2 35.4679 3
    endloop
  endfacet
  facet normal 0.60885 0.793286 0
    outer loop
      vertex 47.7858 35.7858 3
      vertex 48.2 35.4679 0
      vertex 47.7858 35.7858 0
    endloop
  endfacet
  facet normal -0.130445 -0.991456 0
    outer loop
      vertex 49.2 39.2 0
      vertex 49.7176 39.1319 3
      vertex 49.2 39.2 3
    endloop
  endfacet
  facet normal -0.130445 -0.991456 -0
    outer loop
      vertex 49.7176 39.1319 3
      vertex 49.2 39.2 0
      vertex 49.7176 39.1319 0
    endloop
  endfacet
  facet normal 0.608729 -0.793378 0
    outer loop
      vertex 47.7858 38.6142 0
      vertex 48.2 38.932 3
      vertex 47.7858 38.6142 3
    endloop
  endfacet
  facet normal 0.608729 -0.793378 0
    outer loop
      vertex 48.2 38.932 3
      vertex 47.7858 38.6142 0
      vertex 48.2 38.932 0
    endloop
  endfacet
  facet normal 0.130445 -0.991456 0
    outer loop
      vertex 48.6824 39.1319 0
      vertex 49.2 39.2 3
      vertex 48.6824 39.1319 3
    endloop
  endfacet
  facet normal 0.130445 -0.991456 0
    outer loop
      vertex 49.2 39.2 3
      vertex 48.6824 39.1319 0
      vertex 49.2 39.2 0
    endloop
  endfacet
  facet normal -0.923823 0.38282 0
    outer loop
      vertex 50.932 36.2 0
      vertex 51.1319 36.6824 3
      vertex 51.1319 36.6824 0
    endloop
  endfacet
  facet normal -0.923823 0.38282 0
    outer loop
      vertex 51.1319 36.6824 3
      vertex 50.932 36.2 0
      vertex 50.932 36.2 3
    endloop
  endfacet
  facet normal 0.130445 0.991456 -0
    outer loop
      vertex 49.2 35.2 0
      vertex 48.6824 35.2681 3
      vertex 49.2 35.2 3
    endloop
  endfacet
  facet normal 0.130445 0.991456 0
    outer loop
      vertex 48.6824 35.2681 3
      vertex 49.2 35.2 0
      vertex 48.6824 35.2681 0
    endloop
  endfacet
  facet normal -0.130445 0.991456 0
    outer loop
      vertex 49.7176 35.2681 0
      vertex 49.2 35.2 3
      vertex 49.7176 35.2681 3
    endloop
  endfacet
  facet normal -0.130445 0.991456 0
    outer loop
      vertex 49.2 35.2 3
      vertex 49.7176 35.2681 0
      vertex 49.2 35.2 0
    endloop
  endfacet
  facet normal 0.923891 0.382656 0
    outer loop
      vertex 47.4679 36.2 3
      vertex 47.2681 36.6824 0
      vertex 47.2681 36.6824 3
    endloop
  endfacet
  facet normal 0.923891 0.382656 0
    outer loop
      vertex 47.2681 36.6824 0
      vertex 47.4679 36.2 3
      vertex 47.4679 36.2 0
    endloop
  endfacet
  facet normal 0.38282 -0.923823 0
    outer loop
      vertex 48.2 38.932 0
      vertex 48.6824 39.1319 3
      vertex 48.2 38.932 3
    endloop
  endfacet
  facet normal 0.38282 -0.923823 0
    outer loop
      vertex 48.6824 39.1319 3
      vertex 48.2 38.932 0
      vertex 48.6824 39.1319 0
    endloop
  endfacet
  facet normal 0.382656 0.923891 -0
    outer loop
      vertex 48.6824 35.2681 0
      vertex 48.2 35.4679 3
      vertex 48.6824 35.2681 3
    endloop
  endfacet
  facet normal 0.382656 0.923891 0
    outer loop
      vertex 48.2 35.4679 3
      vertex 48.6824 35.2681 0
      vertex 48.2 35.4679 0
    endloop
  endfacet
  facet normal 0.991456 -0.130445 0
    outer loop
      vertex 47.2 37.2 3
      vertex 47.2681 37.7176 0
      vertex 47.2681 37.7176 3
    endloop
  endfacet
  facet normal 0.991456 -0.130445 0
    outer loop
      vertex 47.2681 37.7176 0
      vertex 47.2 37.2 3
      vertex 47.2 37.2 0
    endloop
  endfacet
  facet normal -0.60885 0.793286 0
    outer loop
      vertex 50.6142 35.7858 0
      vertex 50.2 35.4679 3
      vertex 50.6142 35.7858 3
    endloop
  endfacet
  facet normal -0.60885 0.793286 0
    outer loop
      vertex 50.2 35.4679 3
      vertex 50.6142 35.7858 0
      vertex 50.2 35.4679 0
    endloop
  endfacet
  facet normal -0.793378 0.608729 0
    outer loop
      vertex 50.6142 35.7858 0
      vertex 50.932 36.2 3
      vertex 50.932 36.2 0
    endloop
  endfacet
  facet normal -0.793378 0.608729 0
    outer loop
      vertex 50.932 36.2 3
      vertex 50.6142 35.7858 0
      vertex 50.6142 35.7858 3
    endloop
  endfacet
  facet normal 0.991456 0.130445 0
    outer loop
      vertex 47.2681 36.6824 3
      vertex 47.2 37.2 0
      vertex 47.2 37.2 3
    endloop
  endfacet
  facet normal 0.991456 0.130445 0
    outer loop
      vertex 47.2 37.2 0
      vertex 47.2681 36.6824 3
      vertex 47.2681 36.6824 0
    endloop
  endfacet
  facet normal 0.793286 0.60885 0
    outer loop
      vertex 47.7858 35.7858 3
      vertex 47.4679 36.2 0
      vertex 47.4679 36.2 3
    endloop
  endfacet
  facet normal 0.793286 0.60885 0
    outer loop
      vertex 47.4679 36.2 0
      vertex 47.7858 35.7858 3
      vertex 47.7858 35.7858 0
    endloop
  endfacet
  facet normal 1 -0 0
    outer loop
      vertex 4.5 2 24
      vertex 4.5 30.7 2
      vertex 4.5 30.7 24
    endloop
  endfacet
  facet normal 1 0 0
    outer loop
      vertex 4.5 30.7 2
      vertex 4.5 2 24
      vertex 4.5 2 2
    endloop
  endfacet
  facet normal 0 0 1
    outer loop
      vertex 2 22.85 24
      vertex 4.5 30.7 24
      vertex 2 30.7 24
    endloop
  endfacet
  facet normal 0 0 1
    outer loop
      vertex 4.5 30.7 24
      vertex 2 22.85 24
      vertex 4.5 2 24
    endloop
  endfacet
  facet normal -0 0 1
    outer loop
      vertex 2 9.85 24
      vertex 4.5 2 24
      vertex 2 22.85 24
    endloop
  endfacet
  facet normal 0 0 1
    outer loop
      vertex 4.5 2 24
      vertex 2 9.85 24
      vertex 2 2 24
    endloop
  endfacet
  facet normal -0 0 1
    outer loop
      vertex 54.7 30.7 24
      vertex 57.2 2 24
      vertex 57.2 30.7 24
    endloop
  endfacet
  facet normal 0 0 1
    outer loop
      vertex 57.2 2 24
      vertex 54.7 30.7 24
      vertex 54.7 2 24
    endloop
  endfacet
  facet normal -1 0 0
    outer loop
      vertex 54.7 2 2
      vertex 54.7 30.7 24
      vertex 54.7 30.7 2
    endloop
  endfacet
  facet normal -1 -0 0
    outer loop
      vertex 54.7 30.7 24
      vertex 54.7 2 2
      vertex 54.7 2 24
    endloop
  endfacet
  facet normal -0.901522 0.432733 0
    outer loop
      vertex 41 -2.39999 0
      vertex 42.152 0 27
      vertex 42.152 0 0
    endloop
  endfacet
  facet normal -0.901522 0.432733 0
    outer loop
      vertex 42.152 0 27
      vertex 41 -2.39999 0
      vertex 41 -2.39999 27
    endloop
  endfacet
  facet normal 0 -1 0
    outer loop
      vertex 41 -2.39999 0
      vertex 49.4 -2.39999 27
      vertex 41 -2.39999 27
    endloop
  endfacet
  facet normal 0 -1 -0
    outer loop
      vertex 49.4 -2.39999 27
      vertex 41 -2.39999 0
      vertex 49.4 -2.39999 0
    endloop
  endfacet
  facet normal -0 0 1
    outer loop
      vertex 42.152 0 27
      vertex 49.4 -2.39999 27
      vertex 48.248 0 27
    endloop
  endfacet
  facet normal 0 0 1
    outer loop
      vertex 49.4 -2.39999 27
      vertex 42.152 0 27
      vertex 41 -2.39999 27
    endloop
  endfacet
  facet normal 0.901522 0.432733 0
    outer loop
      vertex 49.4 -2.39999 27
      vertex 48.248 0 0
      vertex 48.248 0 27
    endloop
  endfacet
  facet normal 0.901522 0.432733 0
    outer loop
      vertex 48.248 0 0
      vertex 49.4 -2.39999 27
      vertex 49.4 -2.39999 0
    endloop
  endfacet
endsolid OpenSCAD_Model
